<?xml version="1.0" encoding="UTF-8"?>
<svg version="1.1" xmlns="http://www.w3.org/2000/svg" width="193" height="167">
<path d="M0 0 C63.69 0 127.38 0 193 0 C193 55.11 193 110.22 193 167 C129.31 167 65.62 167 0 167 C0 111.89 0 56.78 0 0 Z " fill="#15171B" transform="translate(0,0)"/>
<path d="M0 0 C40.26 0 80.52 0 122 0 C122 40.26 122 80.52 122 122 C118.00421982 120.00210991 115.9558862 118.1745147 112.859375 115.01953125 C112.37349915 114.52845383 111.88762329 114.0373764 111.38702393 113.53141785 C109.83649697 111.96314352 108.29280844 110.38836518 106.75 108.8125 C105.22069069 107.25530129 103.68985053 105.6996917 102.15582275 104.1471405 C100.28905487 102.25689693 98.42856303 100.36065015 96.57739258 98.4551239 C94.97967017 96.91414997 94.97967017 96.91414997 92.89331055 95.53767395 C89.5421104 93.10573308 87.3469895 91.37140013 86.30706787 87.26133728 C86.07450887 83.90715014 86.09985599 80.64528953 86.21875 77.28515625 C86.23006958 76.07427841 86.24138916 74.86340057 86.25305176 73.61582947 C86.29769658 69.76308393 86.39805331 65.91411314 86.5 62.0625 C86.54014163 59.44471535 86.57664117 56.82687214 86.609375 54.20898438 C86.69739381 47.80471017 86.8311181 41.40262475 87 35 C86.33094131 35.02220612 85.66188263 35.04441223 84.97254944 35.06729126 C77.98086204 35.28929195 70.99018169 35.439653 63.99584961 35.54931641 C61.3893159 35.59947006 58.78306164 35.6676131 56.17749023 35.75439453 C52.42101061 35.87633487 48.66826024 35.93254504 44.91015625 35.9765625 C43.75354996 36.02817535 42.59694366 36.07978821 41.4052887 36.13296509 C36.52065361 36.13631769 33.29827223 36.04294289 29.40574646 32.91595459 C27.11598136 30.36953457 25.05131944 27.74030264 23 25 C21.98045314 23.90475867 20.93952142 22.82851892 19.86694336 21.78515625 C17.91846034 19.87487206 15.97418731 17.96082526 14.03320312 16.04296875 C12.46802461 14.50287084 10.90122408 12.96447994 9.33227539 11.42822266 C7.78883724 9.91477023 6.25150857 8.39532456 4.71484375 6.875 C3.80855225 5.98554688 2.90226074 5.09609375 1.96850586 4.1796875 C0 2 0 2 0 0 Z " fill="#F4F4F4" transform="translate(39,20)"/>
<path d="M0 0 C0.66 0 1.32 0 2 0 C2 15.84 2 31.68 2 48 C17.84 48 33.68 48 50 48 C50 48.66 50 49.32 50 50 C48.57299805 51.40576172 48.57299805 51.40576172 46.57421875 53.0546875 C41.73348673 57.17160163 37.27932051 61.609505 32.8125 66.125 C32.03197266 66.91003906 31.25144531 67.69507813 30.44726562 68.50390625 C28.95032269 70.00973689 27.45433795 71.51652089 25.95947266 73.02441406 C23.64642975 75.35647776 21.32469368 77.67955621 19 80 C18.56072678 80.53196487 18.12145355 81.06392975 17.66886902 81.61201477 C15.42150366 83.48113085 14.06051927 83.3629346 11.16137695 83.34057617 C10.1805867 83.34034958 9.19979645 83.34012299 8.18928528 83.33988953 C7.13295395 83.32440567 6.07662262 83.30892181 4.98828125 83.29296875 C3.90491989 83.28872391 2.82155853 83.28447906 1.70536804 83.28010559 C-1.75917277 83.26329569 -5.22313462 83.22563848 -8.6875 83.1875 C-11.03449682 83.17245619 -13.38150274 83.15876726 -15.72851562 83.14648438 C-21.48587505 83.11338461 -27.24289617 83.06316205 -33 83 C-33.22922407 76.04467529 -33.38622541 69.09033223 -33.49438477 62.13208008 C-33.53949451 59.76810309 -33.60080171 57.40437511 -33.67895508 55.04125977 C-33.78882726 51.63234963 -33.83931947 48.22677098 -33.87890625 44.81640625 C-33.92535782 43.76916885 -33.97180939 42.72193146 -34.01966858 41.64295959 C-34.02386274 35.47086306 -33.07181507 32.40457062 -28.67163086 27.95678711 C-27.14094776 26.60716237 -25.58504675 25.28534217 -24 24 C-22.79050723 22.9596798 -21.58193158 21.91829049 -20.375 20.875 C-19.74207031 20.33230469 -19.10914063 19.78960937 -18.45703125 19.23046875 C-14.88622781 15.98892858 -11.4770127 12.59238757 -8.0625 9.1875 C-7.38687012 8.51638184 -6.71124023 7.84526367 -6.01513672 7.15380859 C-5.38236816 6.51910645 -4.74959961 5.8844043 -4.09765625 5.23046875 C-3.52539307 4.65707764 -2.95312988 4.08368652 -2.36352539 3.49291992 C-0.89937424 2.02622622 -0.89937424 2.02622622 0 0 Z " fill="#F3F3F4" transform="translate(70,61)"/>
<path d="M0 0 C40.26 0 80.52 0 122 0 C122 40.26 122 80.52 122 122 C120.02 121.01 120.02 121.01 118 120 C118.66 119.67 119.32 119.34 120 119 C120.33 80.06 120.66 41.12 121 1 C82.06 1 43.12 1 3 1 C2.67 1.99 2.34 2.98 2 4 C1.34 2.68 0.68 1.36 0 0 Z " fill="#E3E3E4" transform="translate(39,20)"/>
<path d="M0 0 C-1 3 -1 3 -2.83164978 4.00376892 C-3.54720535 4.33252518 -4.26276093 4.66128143 -5 5 C-8.57643339 7.53751144 -11.49636798 10.10439854 -12.64889526 14.44235229 C-12.9037441 17.30297723 -12.94405158 20.09338342 -12.90234375 22.96484375 C-12.92125671 24.34017273 -12.92125671 24.34017273 -12.94055176 25.74328613 C-12.97722704 29.14115965 -12.9538802 32.53946804 -12.9375 35.9375 C-12.958125 43.548125 -12.97875 51.15875 -13 59 C2.84 59 18.68 59 35 59 C35 59.33 35 59.66 35 60 C18.83 60 2.66 60 -14 60 C-14.185625 51.935625 -14.37125 43.87125 -14.5625 35.5625 C-14.64443604 33.03408447 -14.72637207 30.50566895 -14.81079102 27.90063477 C-14.83710242 25.87260217 -14.8600303 23.84452168 -14.87890625 21.81640625 C-14.9479718 20.26608704 -14.9479718 20.26608704 -15.01843262 18.68444824 C-15.02515515 12.41680581 -14.02747558 9.35373019 -9.57006836 4.82397461 C-4.16020757 0 -4.16020757 0 0 0 Z " fill="#E4E5E5" transform="translate(51,84)"/>
<path d="M0 0 C-1 3 -1 3 -2.8359375 3.97265625 C-3.55007812 4.31167969 -4.26421875 4.65070313 -5 5 C-6.88335991 6.60632538 -6.88335991 6.60632538 -8.625 8.4375 C-9.51058594 9.33275391 -9.51058594 9.33275391 -10.4140625 10.24609375 C-12.18443039 12.11781258 -12.18443039 12.11781258 -14 15 C-14.2734375 12.796875 -14.2734375 12.796875 -14 10 C-12.1015625 7.578125 -12.1015625 7.578125 -9.625 5.25 C-8.40683594 4.08210938 -8.40683594 4.08210938 -7.1640625 2.890625 C-4.44137001 0.51195503 -3.64920906 0 0 0 Z " fill="#CED0D1" transform="translate(51,84)"/>
<path d="M0 0 C-1.40844718 3.21524305 -3.10344786 5.32183868 -5.625 7.75 C-6.57246094 8.67039062 -6.57246094 8.67039062 -7.5390625 9.609375 C-8.02117188 10.06828125 -8.50328125 10.5271875 -9 11 C-9.99 10.34 -10.98 9.68 -12 9 C-11.01 9 -10.02 9 -9 9 C-9 8.01 -9 7.02 -9 6 C-8.34 6 -7.68 6 -7 6 C-7 5.01 -7 4.02 -7 3 C-6.34 3 -5.68 3 -5 3 C-5 2.34 -5 1.68 -5 1 C-2 0 -2 0 0 0 Z " fill="#292B2E" transform="translate(69,62)"/>
<path d="M0 0 C0 3.7794561 -1.04679411 5.79116175 -3 9 C-4.9375 9.75 -4.9375 9.75 -7 10 C-8.34544833 10.64186526 -9.68072233 11.30593325 -11 12 C-7.49102731 7.81576108 -3.91939465 3.80411834 0 0 Z " fill="#2E2E31" transform="translate(117,112)"/>
<path d="M0 0 C0 4.26861765 -1.65525557 6.48288335 -4 10 C-6.125 10.6875 -6.125 10.6875 -8 11 C-7.43040847 7.37386801 -6.07625466 5.74482259 -3.4375 3.25 C-2.79683594 2.63640625 -2.15617187 2.0228125 -1.49609375 1.390625 C-1.00238281 0.93171875 -0.50867188 0.4728125 0 0 Z " fill="#2B2C30" transform="translate(105,124)"/>
<path d="M0 0 C0.66 0 1.32 0 2 0 C2 1.98 2 3.96 2 6 C0.35 6.66 -1.3 7.32 -3 8 C-3.33 7.34 -3.66 6.68 -4 6 C-3.34 6 -2.68 6 -2 6 C-2.33 4.68 -2.66 3.36 -3 2 C-2.01 2 -1.02 2 0 2 C0 1.34 0 0.68 0 0 Z " fill="#0E0F14" transform="translate(87,143)"/>
</svg>
