<?xml version="1.0" encoding="UTF-8"?>
<svg version="1.1" xmlns="http://www.w3.org/2000/svg" width="190" height="166">
<path d="M0 0 C62.7 0 125.4 0 190 0 C190 54.78 190 109.56 190 166 C127.3 166 64.6 166 0 166 C0 111.22 0 56.44 0 0 Z " fill="#EDF3F2" transform="translate(0,0)"/>
<path d="M0 0 C62.7 0 125.4 0 190 0 C190 4.95 190 9.9 190 15 C181.09 15 172.18 15 163 15 C162.67 17.31 162.34 19.62 162 22 C161.41582357 23.97760159 160.77301052 25.93919398 160.0625 27.875 C159.55396484 29.29425781 159.55396484 29.29425781 159.03515625 30.7421875 C158 33 158 33 156 34 C154.99619084 31.20964954 153.9968055 28.41785145 153 25.625 C152.71382812 24.8309375 152.42765625 24.036875 152.1328125 23.21875 C151.86210937 22.45820313 151.59140625 21.69765625 151.3125 20.9140625 C150.93544922 19.8614624 150.93544922 19.8614624 150.55078125 18.78759766 C150 17 150 17 150 15 C136.8 15 123.6 15 110 15 C110 22.59 110 30.18 110 38 C106.97561774 34.97561774 106.04202678 33.14460609 104.5 29.25 C103.89671875 27.74179687 103.89671875 27.74179687 103.28125 26.203125 C102.8584375 25.14609375 102.435625 24.0890625 102 23 C101.01 20.69 100.02 18.38 99 16 C88.44 16 77.88 16 67 16 C65.96875 18.371875 64.9375 20.74375 63.875 23.1875 C61.11769913 29.50971738 58.28208196 35.78745962 55.359375 42.03515625 C54.14417819 44.68554241 52.98927534 47.35545871 51.84814453 50.03833008 C49.77157709 54.84121418 47.5744463 59.5923615 45.40429688 64.35351562 C41.58766616 72.78379841 38.24959154 81.33442256 35 90 C43.58 90 52.16 90 61 90 C61 112.11 61 134.22 61 157 C75.45939528 157.20029277 75.45939528 157.20029277 89.91796875 157.27929688 C95.8241558 157.28472561 101.72792279 157.30374571 107.63330078 157.40795898 C112.39996536 157.49117659 117.16308076 157.50987899 121.93036652 157.48558617 C123.74040458 157.48736555 125.55057704 157.51162265 127.35997772 157.55968666 C138.41044695 157.98396349 138.41044695 157.98396349 147.86584473 153.00595093 C150.92347785 149.90275738 153.51153339 146.57049092 156 143 C162.59041324 148.40413886 162.59041324 148.40413886 164.19873047 150.74389648 C166.32517801 153.72571954 167.82525248 155.68435249 171.44873047 156.65795898 C174.27759352 156.91110505 177.0353039 156.97020653 179.875 156.9375 C180.84953125 156.95361328 181.8240625 156.96972656 182.828125 156.98632812 C185.21849588 157.02148064 187.60941718 157.01491451 190 157 C190 159.97 190 162.94 190 166 C127.3 166 64.6 166 0 166 C0 111.22 0 56.44 0 0 Z " fill="#036BC9" transform="translate(0,0)"/>
<path d="M0 0 C6.6 0 13.2 0 20 0 C20 19.47 20 38.94 20 59 C16.37 59 12.74 59 9 59 C8.67 46.13 8.34 33.26 8 20 C6.68 24.29 5.36 28.58 4 33 C2.47530797 37.06413708 0.92883964 41.09879649 -0.6875 45.125 C-1.4836151 47.12738869 -2.27921271 49.12998322 -3.07421875 51.1328125 C-3.42057373 51.99793457 -3.76692871 52.86305664 -4.1237793 53.75439453 C-4.79880792 55.48437873 -5.41275993 57.23827979 -6 59 C-10.95 59 -15.9 59 -21 59 C-21.53625 57.370625 -22.0725 55.74125 -22.625 54.0625 C-24.38794175 48.77367475 -26.20833018 43.50734159 -28.0625 38.25 C-28.43012451 37.20598022 -28.43012451 37.20598022 -28.80517578 36.14086914 C-30.48165987 31.40354003 -32.23449378 26.70801658 -34 22 C-34.33 34.21 -34.66 46.42 -35 59 C-46.22 59 -57.44 59 -69 59 C-70.65 55.7 -72.3 52.4 -74 49 C-82.91 49 -91.82 49 -101 49 C-102.98 53.95 -102.98 53.95 -105 59 C-110.94 59 -116.88 59 -123 59 C-119.07964418 49.01143384 -115.11171481 39.05551853 -110.75 29.25 C-110.27530273 28.18096436 -110.27530273 28.18096436 -109.79101562 27.09033203 C-108.23546353 23.62621208 -106.61718258 20.2085824 -104.90234375 16.8203125 C-103.37988889 13.8064582 -102.03059912 10.77714222 -100.8125 7.625 C-99.06944444 3.13888889 -99.06944444 3.13888889 -98 1 C-90.74 1 -83.48 1 -76 1 C-74.906875 3.330625 -73.81375 5.66125 -72.6875 8.0625 C-72.34936279 8.78187744 -72.01122559 9.50125488 -71.6628418 10.24243164 C-68.64581945 16.69192075 -65.89276708 23.24697707 -63.14477539 29.81445312 C-60.17110267 36.91652616 -57.16736799 43.99058789 -53.91015625 50.96875 C-53 53 -53 53 -52 56 C-51.67 37.85 -51.34 19.7 -51 1 C-42.75 1 -34.5 1 -26 1 C-22.50247331 8.82779783 -19.3326814 16.61385146 -16.625 24.75 C-16.36251465 25.53616699 -16.1000293 26.32233398 -15.82958984 27.13232422 C-14 32.72907759 -14 32.72907759 -14 35 C-13.34 35 -12.68 35 -12 35 C-11.85304688 34.48695312 -11.70609375 33.97390625 -11.5546875 33.4453125 C-9.82143403 27.52834374 -7.93516821 21.66587522 -6 15.8125 C-5.62657471 14.67288818 -5.62657471 14.67288818 -5.24560547 13.51025391 C-4.87653076 12.40109619 -4.87653076 12.40109619 -4.5 11.26953125 C-4.2834375 10.61573486 -4.066875 9.96193848 -3.84375 9.28833008 C-2.68455537 6.14448424 -1.31992352 3.07982155 0 0 Z " fill="#056CC7" transform="translate(170,23)"/>
<path d="M0 0 C23.43 0 46.86 0 71 0 C71.495 1.485 71.495 1.485 72 3 C72.58394531 3.28875 73.16789062 3.5775 73.76953125 3.875 C76.76937863 5.38805787 78.47617653 7.48530488 80.6875 10 C81.47511719 10.886875 82.26273437 11.77375 83.07421875 12.6875 C85 15 85 15 86 17 C90.51835619 16.62614074 92.76592539 13.38412442 95.5625 10.1875 C96.04396484 9.65318359 96.52542969 9.11886719 97.02148438 8.56835938 C99.50033163 5.79627847 101.76538612 2.97948518 104 0 C109.61 0 115.22 0 121 0 C121 19.47 121 38.94 121 59 C104 59 104 59 97.75 53.375 C96.12627326 51.28070277 94.54177666 49.15534085 93 47 C91.36226189 44.97389702 89.68380423 42.98832202 88 41 C82.33683116 45.42003422 77.03652065 50.45888573 73.4296875 56.73046875 C70.14447657 59.79913041 67.90629939 59.51856974 63.5390625 59.43945312 C62.61867187 59.39755859 61.69828125 59.35566406 60.75 59.3125 C59.81414062 59.28994141 58.87828125 59.26738281 57.9140625 59.24414062 C55.60774326 59.18530595 53.30469162 59.10317146 51 59 C52.36845025 55.96127857 53.94169314 53.76966554 56.23046875 51.35546875 C56.86919922 50.67806641 57.50792969 50.00066406 58.16601562 49.30273438 C58.83310547 48.60470703 59.50019531 47.90667969 60.1875 47.1875 C60.83525391 46.50107422 61.48300781 45.81464844 62.15039062 45.10742188 C65.89466846 41.15367395 69.70383768 37.29364514 73.64575195 33.53637695 C75.24056484 31.92844734 75.24056484 31.92844734 76 29 C74.88142142 27.16289945 74.88142142 27.16289945 73.125 25.375 C72.47789062 24.67117187 71.83078125 23.96734375 71.1640625 23.2421875 C68.22620435 20.19826949 65.22921037 17.21799174 62.21484375 14.25 C59.46844985 11.46001255 56.92606024 8.52892284 54.41015625 5.53125 C53.05785369 3.88101722 53.05785369 3.88101722 51 3 C50.67 6.63 50.34 10.26 50 14 C38.78 14 27.56 14 16 14 C16 16.97 16 19.94 16 23 C26.89 23 37.78 23 49 23 C49 27.29 49 31.58 49 36 C38.11 36 27.22 36 16 36 C16 38.97 16 41.94 16 45 C27.22 45 38.44 45 50 45 C50 49.62 50 54.24 50 59 C33.5 59 17 59 0 59 C0 39.53 0 20.06 0 0 Z " fill="#076CC6" transform="translate(69,90)"/>
<path d="M0 0 C7.26 0 14.52 0 22 0 C23.093125 2.330625 24.18625 4.66125 25.3125 7.0625 C25.65063721 7.78187744 25.98877441 8.50125488 26.3371582 9.24243164 C29.35418055 15.69192075 32.10723292 22.24697707 34.85522461 28.81445312 C37.82889733 35.91652616 40.83263201 42.99058789 44.08984375 49.96875 C45 52 45 52 46 55 C46.33 36.85 46.66 18.7 47 0 C55.25 0 63.5 0 72 0 C71.67 0.66 71.34 1.32 71 2 C63.74 2 56.48 2 49 2 C49 20.15 49 38.3 49 57 C53.29 57 57.58 57 62 57 C62 44.13 62 31.26 62 18 C62.66 18.33 63.32 18.66 64 19 C63.67 31.87 63.34 44.74 63 58 C51.78 58 40.56 58 29 58 C27.35 54.7 25.7 51.4 24 48 C15.09 48 6.18 48 -3 48 C-4.98 52.95 -4.98 52.95 -7 58 C-12.94 58 -18.88 58 -25 58 C-21.07964418 48.01143384 -17.11171481 38.05551853 -12.75 28.25 C-12.27530273 27.18096436 -12.27530273 27.18096436 -11.79101562 26.09033203 C-10.23546353 22.62621208 -8.61718258 19.2085824 -6.90234375 15.8203125 C-5.37988889 12.8064582 -4.03059912 9.77714222 -2.8125 6.625 C-1.06944444 2.13888889 -1.06944444 2.13888889 0 0 Z " fill="#0B6DC4" transform="translate(72,24)"/>
<path d="M0 0 C11.1065625 -0.0309375 11.1065625 -0.0309375 22.4375 -0.0625 C24.7777124 -0.071604 27.1179248 -0.08070801 29.52905273 -0.09008789 C31.37223249 -0.09300694 33.21541288 -0.09555552 35.05859375 -0.09765625 C36.50836609 -0.1053302 36.50836609 -0.1053302 37.98742676 -0.11315918 C38.90092896 -0.11328003 39.81443115 -0.11340088 40.75561523 -0.11352539 C41.95141457 -0.11685631 41.95141457 -0.11685631 43.17137146 -0.12025452 C45 0 45 0 46 1 C45.67 3.97 45.34 6.94 45 10 C35.1 10.33 25.2 10.66 15 11 C14.67 14.3 14.34 17.6 14 21 C24.89 21 35.78 21 47 21 C47 25.29 47 29.58 47 34 C36.11 34 25.22 34 14 34 C14 36.97 14 39.94 14 43 C25.22 43 36.44 43 48 43 C48 47.29 48 51.58 48 56 C32.49 56 16.98 56 1 56 C0.67 37.52 0.34 19.04 0 0 Z " fill="#056BC7" transform="translate(71,92)"/>
<path d="M0 0 C0.33 0 0.66 0 1 0 C1 13.2 1 26.4 1 40 C4.63 40 8.26 40 12 40 C12 42.64 12 45.28 12 48 C6.39 48 0.78 48 -5 48 C-5.66 49.32 -6.32 50.64 -7 52 C-8.22467205 53.33551433 -9.50022752 54.62545565 -10.8125 55.875 C-14.12521355 59.09720225 -17.11464018 62.39330023 -20 66 C-22.95716202 65.66410855 -23.91691531 65.0906829 -25.96484375 62.85546875 C-26.61582031 61.97503906 -27.26679688 61.09460938 -27.9375 60.1875 C-30.67012609 56.50959173 -33.39175155 53.8145559 -37 51 C-37.33 50.34 -37.66 49.68 -38 49 C-41.10692678 48.56636799 -41.10692678 48.56636799 -44.75 48.4375 C-48.93708445 48.22289002 -52.91038311 47.9443581 -57 47 C-57 46.67 -57 46.34 -57 46 C-52.71 45.34 -48.42 44.68 -44 44 C-44 43.67 -44 43.34 -44 43 C-55.55 42.67 -67.1 42.34 -79 42 C-79.33 39.03 -79.66 36.06 -80 33 C-78 36 -78 36 -77 40 C-65.78 40 -54.56 40 -43 40 C-43 27.13 -43 14.26 -43 1 C-40.8691815 3.1308185 -40.39385994 4.31028976 -39.44921875 7.11328125 C-39.16506104 7.9434375 -38.88090332 8.77359375 -38.58813477 9.62890625 C-38.14232056 10.95728516 -38.14232056 10.95728516 -37.6875 12.3125 C-35.25314049 19.45004975 -32.70427773 26.48793866 -29.84765625 33.46875 C-29 36 -29 36 -29 40 C-24.05 40 -19.1 40 -14 40 C-13.7215625 38.2984375 -13.7215625 38.2984375 -13.4375 36.5625 C-12.20500484 30.9320365 -9.93312476 25.8194661 -7.68286133 20.53930664 C-5.29912518 14.88908464 -3.40668119 9.24608001 -1.7265625 3.34375 C-1 1 -1 1 0 0 Z " fill="#F1F4F3" transform="translate(178,42)"/>
<path d="M0 0 C1.34888732 0.00015905 2.69778075 0.00584927 4.04663086 0.01586914 C5.10991859 0.01799156 5.10991859 0.01799156 6.19468689 0.02015686 C8.46699173 0.02577096 10.73919936 0.03832576 13.01147461 0.05102539 C14.54858257 0.05603858 16.08569206 0.0606018 17.62280273 0.06469727 C21.39823103 0.07574497 25.17358632 0.09301898 28.94897461 0.11352539 C31.7355484 5.58820264 34.44414362 11.04451211 36.76147461 16.73852539 C37.84428711 19.39915039 37.84428711 19.39915039 38.94897461 22.11352539 C39.27897461 14.85352539 39.60897461 7.59352539 39.94897461 0.11352539 C53.14897461 0.11352539 66.34897461 0.11352539 79.94897461 0.11352539 C79.94897461 0.44352539 79.94897461 0.77352539 79.94897461 1.11352539 C67.07897461 1.11352539 54.20897461 1.11352539 40.94897461 1.11352539 C40.94897461 9.36352539 40.94897461 17.61352539 40.94897461 26.11352539 C39.62897461 25.78352539 38.30897461 25.45352539 36.94897461 25.11352539 C35.95897461 25.11352539 34.96897461 25.11352539 33.94897461 25.11352539 C33.28897461 26.43352539 32.62897461 27.75352539 31.94897461 29.11352539 C30.79625097 26.72079617 29.65168616 24.32470918 28.51147461 21.92602539 C28.18598633 21.25249023 27.86049805 20.57895508 27.52514648 19.88500977 C27.05625 18.89404297 27.05625 18.89404297 26.57788086 17.88305664 C26.28985596 17.28082275 26.00183105 16.67858887 25.70507812 16.05810547 C24.94897461 14.11352539 24.94897461 14.11352539 23.94897461 9.11352539 C16.68897461 9.11352539 9.42897461 9.11352539 1.94897461 9.11352539 C1.28897461 11.09352539 0.62897461 13.07352539 -0.05102539 15.11352539 C-2.38047963 21.49971627 -4.75253188 27.80873017 -7.89086914 33.84399414 C-12.50899917 42.87811382 -16.57356214 52.09306969 -20.10571289 61.60180664 C-21.05102539 64.11352539 -21.05102539 64.11352539 -22.05102539 66.11352539 C-16.44102539 66.44352539 -10.83102539 66.77352539 -5.05102539 67.11352539 C-5.05102539 67.44352539 -5.05102539 67.77352539 -5.05102539 68.11352539 C-11.98102539 68.11352539 -18.91102539 68.11352539 -26.05102539 68.11352539 C-27.04102539 65.14352539 -27.04102539 65.14352539 -28.05102539 62.11352539 C-29.53602539 64.58852539 -29.53602539 64.58852539 -31.05102539 67.11352539 C-32.05102539 65.11352539 -32.05102539 65.11352539 -31.41772461 63.11743164 C-31.06726074 62.31176758 -30.71679688 61.50610352 -30.35571289 60.67602539 C-29.96899414 59.78012695 -29.58227539 58.88422852 -29.18383789 57.96118164 C-28.76875977 57.02145508 -28.35368164 56.08172852 -27.92602539 55.11352539 C-27.53415039 54.20473633 -27.14227539 53.29594727 -26.73852539 52.35961914 C-24.74557598 47.78104582 -22.65873037 43.27753388 -20.39868164 38.82446289 C-18.55851433 35.1942886 -16.98797521 31.5749018 -15.61352539 27.73852539 C-13.55762721 22.23235015 -11.09916781 17.07493126 -8.40649414 11.85571289 C-6.67472344 8.35224595 -5.36872225 4.7892061 -4.05102539 1.11352539 C-3.05102539 0.11352539 -3.05102539 0.11352539 0 0 Z " fill="#DDEBED" transform="translate(70.051025390625,14.886474609375)"/>
<path d="M0 0 C0 15.51 0 31.02 0 47 C-16.30881164 33.02101859 -16.30881164 33.02101859 -22 25 C-22 21.26436753 -21.20375128 20.79570323 -18.67578125 18.1640625 C-17.97646484 17.42929688 -17.27714844 16.69453125 -16.55664062 15.9375 C-15.81607422 15.174375 -15.07550781 14.41125 -14.3125 13.625 C-13.2306543 12.49191406 -13.2306543 12.49191406 -12.12695312 11.3359375 C-10.09527064 9.21333955 -8.05096278 7.10395517 -6 5 C-5.47196777 4.4544043 -4.94393555 3.90880859 -4.39990234 3.34667969 C-1.12279774 0 -1.12279774 0 0 0 Z " fill="#E5EEEE" transform="translate(190,96)"/>
<path d="M0 0 C23.43 0 46.86 0 71 0 C71 0.33 71 0.66 71 1 C64.73 1 58.46 1 52 1 C50.03927451 4.92145098 50.39693727 9.63369 50 14 C38.78 14 27.56 14 16 14 C16.33 13.34 16.66 12.68 17 12 C26.9 12 36.8 12 47 12 C47 9.03 47 6.06 47 3 C32.15 2.67 17.3 2.34 2 2 C2.33 4.64 2.66 7.28 3 10 C3.07645692 11.77023819 3.11823784 13.54257088 3.11352539 15.31445312 C3.11341209 16.75504089 3.11341209 16.75504089 3.11329651 18.22473145 C3.10813522 19.23338257 3.10297394 20.24203369 3.09765625 21.28125 C3.0962413 22.33534058 3.09482635 23.38943115 3.09336853 24.47546387 C3.08780508 27.81700571 3.07525941 31.15847867 3.0625 34.5 C3.05748027 36.77604069 3.0529182 39.05208245 3.04882812 41.328125 C3.03870178 46.88546407 3.0191193 52.44265561 3 58 C18.51 58 34.02 58 50 58 C50 58.33 50 58.66 50 59 C33.5 59 17 59 0 59 C0 39.53 0 20.06 0 0 Z " fill="#2B79B6" transform="translate(69,90)"/>
<path d="M0 0 C3.25696479 0.41755959 4.63443291 0.63443291 7 3 C9.89967757 3.30675232 12.71783178 3.51173371 15.625 3.625 C16.42679688 3.66367188 17.22859375 3.70234375 18.0546875 3.7421875 C20.03607556 3.83653931 22.01800645 3.91936215 24 4 C24 6.64 24 9.28 24 12 C20.62590441 12.20453151 17.25341008 12.32801449 13.875 12.4375 C12.92367187 12.49615234 11.97234375 12.55480469 10.9921875 12.61523438 C3.99730235 12.78524894 3.99730235 12.78524894 0.98144531 10.41064453 C-0.50885078 8.67196576 -1.80336579 6.95010546 -3 5 C-1.125 1.125 -1.125 1.125 0 0 Z " fill="#EAF1F1" transform="translate(166,145)"/>
<path d="M0 0 C8.25 0 16.5 0 25 0 C26.4783226 2.95664519 26.06032783 5.74229737 26 9 C25.01 8.01 24.02 7.02 23 6 C23 7.65 23 9.3 23 11 C22.01 11.495 22.01 11.495 21 12 C21 10.35 21 8.7 21 7 C12.75 7 4.5 7 -4 7 C-4.33 5.35 -4.66 3.7 -5 2 C-3.35 2 -1.7 2 0 2 C0 1.34 0 0.68 0 0 Z " fill="#EFF4F3" transform="translate(75,16)"/>
<path d="M0 0 C3.0625 1 3.0625 1 5 2 C5 2.99 5 3.98 5 5 C5.66 5 6.32 5 7 5 C7.33 4.34 7.66 3.68 8 3 C8 7 8 7 6.34814453 8.71362305 C3.54662035 10.24837361 1.61385867 10.45452713 -1.5703125 10.58203125 C-2.63121094 10.62650391 -3.69210938 10.67097656 -4.78515625 10.71679688 C-6.43837891 10.76416992 -6.43837891 10.76416992 -8.125 10.8125 C-9.23488281 10.86341797 -10.34476563 10.91433594 -11.48828125 10.96679688 C-17.59145215 11.18609473 -17.59145215 11.18609473 -20 11 C-20.66 10.34 -21.32 9.68 -22 9 C-22 8.01 -22 7.02 -22 6 C-16.84828377 5.90961901 -12.08086796 6.15318867 -7 7 C-7 6.34 -7 5.68 -7 5 C-8.65 5 -10.3 5 -12 5 C-12 4.01 -12 3.02 -12 2 C-7.95398061 -0.69734626 -4.74576236 -0.43218852 0 0 Z " fill="#046AC9" transform="translate(89,59)"/>
<path d="M0 0 C2.97619417 2.97619417 3.81809239 6.57543889 5.1875 10.5 C5.47302734 11.28503906 5.75855469 12.07007813 6.05273438 12.87890625 C6.31763672 13.63042969 6.58253906 14.38195313 6.85546875 15.15625 C7.09934326 15.84525391 7.34321777 16.53425781 7.59448242 17.24414062 C8 19 8 19 7 21 C5.35 20.01 3.7 19.02 2 18 C1.67 25.59 1.34 33.18 1 41 C-2.13088871 42.56544436 -5.42714023 42.00148591 -8.8515625 41.87890625 C-9.62559418 41.85529526 -10.39962585 41.83168427 -11.19711304 41.80735779 C-13.6732603 41.73068562 -16.14909759 41.64667684 -18.625 41.5625 C-20.30206808 41.50928285 -21.97915137 41.45654243 -23.65625 41.40429688 C-27.77103023 41.27506572 -31.88554725 41.13925354 -36 41 C-36.33 38.03 -36.66 35.06 -37 32 C-35 35 -35 35 -34 39 C-22.78 39 -11.56 39 0 39 C0 26.13 0 13.26 0 0 Z " fill="#E2F3F3" transform="translate(135,43)"/>
<path d="M0 0 C13.2 0 26.4 0 40 0 C40 0.33 40 0.66 40 1 C27.13 1 14.26 1 1 1 C1 9.25 1 17.5 1 26 C-0.32 25.67 -1.64 25.34 -3 25 C-3.99 25 -4.98 25 -6 25 C-6.66 26.32 -7.32 27.64 -8 29 C-8.8709379 27.27921959 -9.72114558 25.54793677 -10.5625 23.8125 C-11.03816406 22.84957031 -11.51382813 21.88664062 -12.00390625 20.89453125 C-13.0953885 17.72281223 -12.96567452 16.16301775 -12 13 C-10.02 12.67 -8.04 12.34 -6 12 C-4.35 15.3 -2.7 18.6 -1 22 C-0.67 14.74 -0.34 7.48 0 0 Z " fill="#BAD7E4" transform="translate(110,15)"/>
<path d="M0 0 C1.07810692 0.02830147 1.07810692 0.02830147 2.17799377 0.05717468 C3.69694934 0.09901218 5.21582752 0.14374508 6.73461914 0.19116211 C9.05404601 0.26134475 11.37349355 0.31571699 13.69335938 0.36914062 C15.17060114 0.41179391 16.64781625 0.4553828 18.125 0.5 C18.81677841 0.51468826 19.50855682 0.52937653 20.22129822 0.54450989 C23.82940285 0.67258399 26.55005604 0.99468156 29.62890625 2.94921875 C29.62890625 4.26921875 29.62890625 5.58921875 29.62890625 6.94921875 C30.94890625 6.28921875 32.26890625 5.62921875 33.62890625 4.94921875 C33.29890625 7.58921875 32.96890625 10.22921875 32.62890625 12.94921875 C33.28890625 12.94921875 33.94890625 12.94921875 34.62890625 12.94921875 C34.62890625 9.64921875 34.62890625 6.34921875 34.62890625 2.94921875 C34.95890625 2.94921875 35.28890625 2.94921875 35.62890625 2.94921875 C35.62890625 10.20921875 35.62890625 17.46921875 35.62890625 24.94921875 C32.60452399 21.92483649 31.67093303 20.09382484 30.12890625 16.19921875 C29.72671875 15.19375 29.32453125 14.18828125 28.91015625 13.15234375 C28.2759375 11.56679688 28.2759375 11.56679688 27.62890625 9.94921875 C26.63890625 7.63921875 25.64890625 5.32921875 24.62890625 2.94921875 C14.06890625 2.94921875 3.50890625 2.94921875 -7.37109375 2.94921875 C-9.58998102 8.12250926 -9.58998102 8.12250926 -11.79833984 13.30029297 C-12.07758301 13.94498535 -12.35682617 14.58967773 -12.64453125 15.25390625 C-12.92731934 15.91374512 -13.21010742 16.57358398 -13.50146484 17.25341797 C-14.37109375 18.94921875 -14.37109375 18.94921875 -16.37109375 20.94921875 C-15.71837819 17.43215917 -14.85716351 14.05596798 -13.80859375 10.63671875 C-13.53917969 9.75371094 -13.26976562 8.87070312 -12.9921875 7.9609375 C-12.78722656 7.29707031 -12.58226562 6.63320313 -12.37109375 5.94921875 C-11.71109375 5.94921875 -11.05109375 5.94921875 -10.37109375 5.94921875 C-10.37109375 4.29921875 -10.37109375 2.64921875 -10.37109375 0.94921875 C-6.81936672 -0.23469026 -3.68576889 -0.11029085 0 0 Z " fill="#166BB6" transform="translate(74.37109375,13.05078125)"/>
<path d="M0 0 C3.0247891 2.55466059 4.20620611 5.37016273 5.6875 9 C6.34298828 10.5778125 6.34298828 10.5778125 7.01171875 12.1875 C8 15 8 15 8 18 C3.05 18 -1.9 18 -7 18 C-2.85714286 5.14285714 -2.85714286 5.14285714 0 0 Z " fill="#E5EFF1" transform="translate(82,39)"/>
<path d="M0 0 C2.36067035 1.96955337 4.68544948 3.97650074 7 6 C7.59425781 6.50273437 8.18851563 7.00546875 8.80078125 7.5234375 C10.4375 9 10.4375 9 13 12 C13.16015625 15.1875 13.16015625 15.1875 13 18 C-1.96400822 19.37736894 -1.96400822 19.37736894 -6.91015625 16.03125 C-12 10.19317151 -12 10.19317151 -12 8 C-10.35 8 -8.7 8 -7 8 C-6.34 9.98 -5.68 11.96 -5 14 C-1.41672247 15.00217064 -1.41672247 15.00217064 2 14 C2 13.01 2 12.02 2 11 C4.31 11.33 6.62 11.66 9 12 C9 11.34 9 10.68 9 10 C8.21625 9.87625 7.4325 9.7525 6.625 9.625 C4 9 4 9 2 7 C1.28072705 4.68234271 0.6090107 2.34904126 0 0 Z " fill="#1C74BE" transform="translate(177,131)"/>
<path d="M0 0 C0 7.59 0 15.18 0 23 C-7.875 16.25 -7.875 16.25 -11 13 C-9.65843409 8.98935008 -7.97314977 6.61296284 -4.9375 3.6875 C-4.22464844 2.99011719 -3.51179687 2.29273437 -2.77734375 1.57421875 C-1 0 -1 0 0 0 Z " fill="#076BC7" transform="translate(190,108)"/>
<path d="M0 0 C1.0735426 10.37757848 1.0735426 10.37757848 -1.55859375 14.35546875 C-3.29703509 16.05193565 -5.03404462 17.57568539 -7 19 C-7.86625 17.9790625 -7.86625 17.9790625 -8.75 16.9375 C-9.4925 16.298125 -10.235 15.65875 -11 15 C-13.21858253 15.13641377 -13.21858253 15.13641377 -15 16 C-13.33830526 11.69422496 -10.16919694 8.90988145 -6.9375 5.75 C-6.38255859 5.19570312 -5.82761719 4.64140625 -5.25585938 4.0703125 C-1.14043257 0 -1.14043257 0 0 0 Z " fill="#EEF3F0" transform="translate(190,96)"/>
<path d="M0 0 C2.70627324 2.70627324 3.54781973 5.82890402 4.75 9.375 C4.99621094 10.04789063 5.24242187 10.72078125 5.49609375 11.4140625 C7.20106492 16.42056745 7.20106492 16.42056745 6.140625 19.4765625 C5.76421875 19.97929688 5.3878125 20.48203125 5 21 C4.67 19.68 4.34 18.36 4 17 C3.34 17 2.68 17 2 17 C2 15.68 2 14.36 2 13 C1.34 13 0.68 13 0 13 C0 15.31 0 17.62 0 20 C-0.804375 20.268125 -1.60875 20.53625 -2.4375 20.8125 C-3.283125 21.204375 -4.12875 21.59625 -5 22 C-5.33 22.99 -5.66 23.98 -6 25 C-7.31626692 21.38026598 -8 18.90432869 -8 15 C-7.34 15 -6.68 15 -6 15 C-5.67 14.34 -5.34 13.68 -5 13 C-2.69467163 11.69364726 -0.52428777 10.84142926 2 10 C1.505 8.63875 1.505 8.63875 1 7.25 C0 4 0 4 0 0 Z " fill="#066BC7" transform="translate(145,28)"/>
<path d="M0 0 C0.66 0 1.32 0 2 0 C2 2.64 2 5.28 2 8 C2.66 8 3.32 8 4 8 C4.0247345 12.07510438 4.04287637 16.15017964 4.05493164 20.2253418 C4.05995777 21.61141725 4.06677966 22.99748741 4.07543945 24.38354492 C4.08758018 26.37676715 4.09271021 28.37002819 4.09765625 30.36328125 C4.10289307 31.56251221 4.10812988 32.76174316 4.11352539 33.99731445 C4 37 4 37 3 40 C5.97 40 8.94 40 12 40 C12 40.33 12 40.66 12 41 C8.37 41 4.74 41 1 41 C0.67 27.47 0.34 13.94 0 0 Z " fill="#0D6BBA" transform="translate(178,41)"/>
<path d="M0 0 C5.96313166 -0.02464574 11.92623395 -0.042834 17.8894043 -0.05493164 C19.91968298 -0.05997278 21.94995802 -0.06680557 23.98022461 -0.07543945 C26.89177347 -0.08751467 29.8032745 -0.09323034 32.71484375 -0.09765625 C33.6283812 -0.10281754 34.54191864 -0.10797882 35.48313904 -0.11329651 C37.65575427 -0.11349168 39.82827296 -0.06211805 42 0 C43.61723079 1.61723079 43.66658303 3.60757896 44.125 5.8125 C44.31320313 6.68519531 44.50140625 7.55789062 44.6953125 8.45703125 C44.99875868 10.98963976 44.79414358 12.60079158 44 15 C43.32942113 13.2097939 42.6636531 11.41778511 42 9.625 C41.62875 8.62726562 41.2575 7.62953125 40.875 6.6015625 C40 4 40 4 40 2 C26.8 2 13.6 2 0 2 C0 1.34 0 0.68 0 0 Z " fill="#0962B5" transform="translate(110,13)"/>
<path d="M0 0 C0.33 0 0.66 0 1 0 C1 13.2 1 26.4 1 40 C0.67 40 0.34 40 0 40 C-0.33 33.4 -0.66 26.8 -1 20 C-2.98 20.33 -4.96 20.66 -7 21 C-5.180206 13.74839665 -2.93841629 6.87619244 0 0 Z " fill="#AFCFE2" transform="translate(178,42)"/>
<path d="M0 0 C0.33 0 0.66 0 1 0 C1 1.98 1 3.96 1 6 C3.475 6.495 3.475 6.495 6 7 C4.35 9.31 2.7 11.62 1 14 C7.27 14 13.54 14 20 14 C20 14.33 20 14.66 20 15 C-3.1 15 -26.2 15 -50 15 C-50 14.67 -50 14.34 -50 14 C-33.5 14 -17 14 0 14 C0 9.38 0 4.76 0 0 Z " fill="#C9E6EB" transform="translate(119,135)"/>
<path d="M0 0 C0.58203125 1.890625 0.58203125 1.890625 1 4 C-0.3125 5.75 -0.3125 5.75 -2 7 C-2.66 7 -3.32 7 -4 7 C-4 8.32 -4 9.64 -4 11 C-5.98 11.99 -7.96 12.98 -10 14 C-10 14.66 -10 15.32 -10 16 C-5.05 16 -0.1 16 5 16 C4.67 16.99 4.34 17.98 4 19 C-2.6 19 -9.2 19 -16 19 C-14.34029454 15.68058909 -13.2009804 13.92103388 -10.7421875 11.328125 C-10.11699219 10.66425781 -9.49179688 10.00039062 -8.84765625 9.31640625 C-8.19667969 8.63449219 -7.54570312 7.95257813 -6.875 7.25 C-6.21628906 6.55261719 -5.55757812 5.85523438 -4.87890625 5.13671875 C-3.25672226 3.42049511 -1.63034621 1.70846565 0 0 Z " fill="#1E72BA" transform="translate(136,130)"/>
<path d="M0 0 C8.58 0 17.16 0 26 0 C26 0.33 26 0.66 26 1 C17.75 1 9.5 1 1 1 C1 19.81 1 38.62 1 58 C-1.46278801 55.53721199 -1.99771255 53.29323018 -3 50 C-2.01 49.505 -2.01 49.505 -1 49 C-0.67 32.83 -0.34 16.66 0 0 Z " fill="#B1D7E8" transform="translate(118,23)"/>
<path d="M0 0 C0 1.32 0 2.64 0 4 C-8.58 4 -17.16 4 -26 4 C-19.80471872 -2.19528128 -8.28357253 -0.10604858 0 0 Z " fill="#F1F5F2" transform="translate(112,108)"/>
<path d="M0 0 C8.91 0 17.82 0 27 0 C27 0.66 27 1.32 27 2 C25.72125 2.06058594 24.4425 2.12117188 23.125 2.18359375 C21.4166589 2.26807216 19.70832599 2.35271641 18 2.4375 C17.16082031 2.47681641 16.32164062 2.51613281 15.45703125 2.55664062 C10.25986542 2.81851332 5.15542847 3.2899352 0 4 C0 2.68 0 1.36 0 0 Z " fill="#C4E2EB" transform="translate(163,15)"/>
<path d="M0 0 C0.99 0.99 1.98 1.98 3 3 C3.66 2.34 4.32 1.68 5 1 C5.66 2.65 6.32 4.3 7 6 C5.02 6.33 3.04 6.66 1 7 C0.67 7.99 0.34 8.98 0 10 C-2 8 -2 8 -3 3 C-9.93 3 -16.86 3 -24 3 C-24 2.67 -24 2.34 -24 2 C-20.54210946 1.80364026 -17.08367803 1.61941748 -13.625 1.4375 C-12.64015625 1.38142578 -11.6553125 1.32535156 -10.640625 1.26757812 C-9.69960937 1.21923828 -8.75859375 1.17089844 -7.7890625 1.12109375 C-6.48509521 1.05039673 -6.48509521 1.05039673 -5.15478516 0.97827148 C-3 1 -3 1 -1 2 C-0.375 4.0625 -0.375 4.0625 0 6 C0 4.02 0 2.04 0 0 Z " fill="#BFDBE7" transform="translate(97,21)"/>
<path d="M0 0 C2.97619417 2.97619417 3.81809239 6.57543889 5.1875 10.5 C5.47302734 11.28503906 5.75855469 12.07007813 6.05273438 12.87890625 C6.31763672 13.63042969 6.58253906 14.38195313 6.85546875 15.15625 C7.22128052 16.18975586 7.22128052 16.18975586 7.59448242 17.24414062 C8 19 8 19 7 21 C4.0546875 19.546875 4.0546875 19.546875 1 17 C0.10981926 14.091781 0.11496537 11.27543964 0.125 8.25 C0.104375 7.45722656 0.08375 6.66445313 0.0625 5.84765625 C0.01554182 3.89889185 0.00425617 1.94932543 0 0 Z " fill="#D0E4EB" transform="translate(135,43)"/>
<path d="M0 0 C3.44216672 2.6598561 3.99504674 5.90288286 5 10 C2.69 10 0.38 10 -2 10 C-2.12375 10.5775 -2.2475 11.155 -2.375 11.75 C-3.00648824 14.02335767 -3.88858191 15.9253529 -5 18 C-5.66 17.67 -6.32 17.34 -7 17 C-6.21086057 14.91570807 -5.41859037 12.83260131 -4.625 10.75 C-4.18414062 9.58984375 -3.74328125 8.4296875 -3.2890625 7.234375 C-2.29409145 4.73790219 -1.25589954 2.37095053 0 0 Z " fill="#C9E1E8" transform="translate(82,39)"/>
<path d="M0 0 C2.33333333 2.33333333 4.66666667 4.66666667 7 7 C9.22658154 7.37004294 9.22658154 7.37004294 11.7890625 7.4140625 C13.20058594 7.47207031 13.20058594 7.47207031 14.640625 7.53125 C15.62546875 7.5621875 16.6103125 7.593125 17.625 7.625 C19.11386719 7.68300781 19.11386719 7.68300781 20.6328125 7.7421875 C23.08835385 7.8366314 25.5438841 7.92219875 28 8 C28 8.66 28 9.32 28 10 C24.43812343 10.17479953 20.87735227 10.28101143 17.3125 10.375 C16.30509766 10.42527344 15.29769531 10.47554687 14.25976562 10.52734375 C6.94314595 10.67222731 6.94314595 10.67222731 4.20581055 8.72119141 C1.96927488 6.10020733 0.39783631 3.4479147 0 0 Z " fill="#2676BA" transform="translate(162,149)"/>
<path d="M0 0 C0.66 0 1.32 0 2 0 C2 0.66 2 1.32 2 2 C3.17949219 2.32677734 3.17949219 2.32677734 4.3828125 2.66015625 C7 4 7 4 8.1796875 6.49609375 C8.40914062 7.46675781 8.63859375 8.43742187 8.875 9.4375 C9.11992188 10.40558594 9.36484375 11.37367187 9.6171875 12.37109375 C10 15 10 15 9 18 C7.02 13.38 5.04 8.76 3 4 C0.42974154 8.2837641 -1.58707905 12.1725201 -3 17 C-4.10844919 13.67465243 -3.84454356 11.37817425 -3 8 C-2.34 8 -1.68 8 -1 8 C-0.67 5.36 -0.34 2.72 0 0 Z " fill="#1D75BA" transform="translate(80,36)"/>
<path d="M0 0 C0.66 0 1.32 0 2 0 C2.33 3.63 2.66 7.26 3 11 C2.01 11.495 2.01 11.495 1 12 C0.01 12.66 -0.98 13.32 -2 14 C-2.33 13.01 -2.66 12.02 -3 11 C-3.66 10.67 -4.32 10.34 -5 10 C-4.34 8.02 -3.68 6.04 -3 4 C-2.34 4 -1.68 4 -1 4 C-0.67 2.68 -0.34 1.36 0 0 Z " fill="#F2F4EF" transform="translate(62,30)"/>
<path d="M0 0 C0.33 3.3 0.66 6.6 1 10 C-1.81832513 8.59083743 -2.02593461 6.92219617 -3 4 C-3 3.01 -3 2.02 -3 1 C-11.58 1 -20.16 1 -29 1 C-29 0.67 -29 0.34 -29 0 C-24.72953289 -0.19656362 -20.45861919 -0.38070249 -16.1875 -0.5625 C-14.97255859 -0.61857422 -13.75761719 -0.67464844 -12.50585938 -0.73242188 C-11.34248047 -0.78076172 -10.17910156 -0.82910156 -8.98046875 -0.87890625 C-7.90692139 -0.9260376 -6.83337402 -0.97316895 -5.72729492 -1.02172852 C-3 -1 -3 -1 0 0 Z " fill="#1068B8" transform="translate(100,69)"/>
<path d="M0 0 C0.66 0.33 1.32 0.66 2 1 C2 1.99 2 2.98 2 4 C1.01 4.99 0.02 5.98 -1 7 C1.97 7 4.94 7 8 7 C8 6.34 8 5.68 8 5 C10.31 5 12.62 5 15 5 C15 5.66 15 6.32 15 7 C17.97 7 20.94 7 24 7 C24 7.33 24 7.66 24 8 C15.42 8 6.84 8 -2 8 C-1 2 -1 2 0 0 Z " fill="#E5F2F3" transform="translate(37,82)"/>
<path d="M0 0 C2 3 2 3 3 7 C14.22 7 25.44 7 37 7 C37 7.33 37 7.66 37 8 C25.12 8.33 13.24 8.66 1 9 C0.67 6.03 0.34 3.06 0 0 Z " fill="#C0E3EC" transform="translate(98,75)"/>
<path d="M0 0 C4.95 0.33 9.9 0.66 15 1 C15 1.99 15 2.98 15 4 C10.05 4 5.1 4 0 4 C0 2.68 0 1.36 0 0 Z " fill="#166AB8" transform="translate(149,78)"/>
<path d="M0 0 C0.66 0.33 1.32 0.66 2 1 C1.51171875 7.0546875 1.51171875 7.0546875 1 9 C0.01 9.66 -0.98 10.32 -2 11 C-2.33 11.99 -2.66 12.98 -3 14 C-7.95 14 -12.9 14 -18 14 C-18 13.67 -18 13.34 -18 13 C-13.38 13 -8.76 13 -4 13 C-3.71125 11.5975 -3.4225 10.195 -3.125 8.75 C-2.46276373 5.53342384 -1.57554035 2.88628401 0 0 Z " fill="#C1DDE7" transform="translate(168,69)"/>
<path d="M0 0 C2.22825644 2.22825644 2.69239369 3.65761628 3.625 6.625 C3.88539062 7.44226562 4.14578125 8.25953125 4.4140625 9.1015625 C4.60742188 9.72804688 4.80078125 10.35453125 5 11 C3.02 11.99 3.02 11.99 1 13 C0.67 12.67 0.34 12.34 0 12 C-0.66 13.32 -1.32 14.64 -2 16 C-2.33 14.35 -2.66 12.7 -3 11 C-2.34 11 -1.68 11 -1 11 C-0.855625 10.4225 -0.71125 9.845 -0.5625 9.25 C-0.04166667 7.16666667 0.47916667 5.08333333 1 3 C0.01 2.67 -0.98 2.34 -2 2 C-1.34 2 -0.68 2 0 2 C0 1.34 0 0.68 0 0 Z " fill="#DBEAEE" transform="translate(104,28)"/>
<path d="M0 0 C2 2 2 2 2.125 5.625 C2.08375 6.73875 2.0425 7.8525 2 9 C1.01 8.01 0.02 7.02 -1 6 C-1 7.65 -1 9.3 -1 11 C-1.99 11.495 -1.99 11.495 -3 12 C-3 10.35 -3 8.7 -3 7 C-5.97 6.505 -5.97 6.505 -9 6 C-8.67 5.34 -8.34 4.68 -8 4 C-7.21625 3.855625 -6.4325 3.71125 -5.625 3.5625 C-2.74874279 2.94615917 -1.83615293 2.22271144 0 0 Z " fill="#E4EDEB" transform="translate(99,16)"/>
<path d="M0 0 C2.70627324 2.70627324 3.54781973 5.82890402 4.75 9.375 C4.99621094 10.04789063 5.24242187 10.72078125 5.49609375 11.4140625 C7.20106492 16.42056745 7.20106492 16.42056745 6.140625 19.4765625 C5.76421875 19.97929688 5.3878125 20.48203125 5 21 C4.67 19.68 4.34 18.36 4 17 C3.34 17 2.68 17 2 17 C2.04125 15.96875 2.0825 14.9375 2.125 13.875 C2.0032453 10.10060421 1.25169779 7.52040004 0 4 C0 2.68 0 1.36 0 0 Z " fill="#1A73BF" transform="translate(145,28)"/>
<path d="M0 0 C-0.33 0.99 -0.66 1.98 -1 3 C-7.6 3 -14.2 3 -21 3 C-21 2.34 -21 1.68 -21 1 C-18.06255476 0.83231709 -15.12505096 0.66581142 -12.1875 0.5 C-11.35412109 0.45230469 -10.52074219 0.40460938 -9.66210938 0.35546875 C-8.85966797 0.31035156 -8.05722656 0.26523438 -7.23046875 0.21875 C-6.49207764 0.17685547 -5.75368652 0.13496094 -4.99291992 0.09179688 C-3.33009506 0.01520467 -1.6645879 0 0 0 Z " fill="#337EB5" transform="translate(141,146)"/>
<path d="M0 0 C1.98 1.65 3.96 3.3 6 5 C3.39417629 5.93065133 2.35801776 6.14917407 -0.25 5.0625 C-1.11625 4.5365625 -1.11625 4.5365625 -2 4 C-1.67 5.32 -1.34 6.64 -1 8 C-2.98 8 -4.96 8 -7 8 C-6.02133662 6.85373678 -5.04205413 5.70800212 -4.0625 4.5625 C-3.51722656 3.92441406 -2.97195312 3.28632813 -2.41015625 2.62890625 C-1.63204305 1.73008851 -0.84063472 0.84063472 0 0 Z " fill="#2273BA" transform="translate(156,143)"/>
<path d="M0 0 C0.84062397 3.09773244 1.08935201 5.78332751 1 9 C0.34 9 -0.32 9 -1 9 C-1.103125 9.53625 -1.20625 10.0725 -1.3125 10.625 C-2.18092697 13.62502044 -3.55620296 16.2379535 -5 19 C-5.66 19 -6.32 19 -7 19 C-5.17778624 12.38757278 -2.94776396 6.19479329 0 0 Z " fill="#2276BB" transform="translate(57,57)"/>
<path d="M0 0 C2 2 2 2 2 6 C1.01 6.33 0.02 6.66 -1 7 C-1.77842938 10.40562852 -2.09978121 13.50765756 -2 17 C-3.73662334 13.77484237 -4.8905928 10.48670834 -6 7 C-5.34 7 -4.68 7 -4 7 C-3.71125 6.21625 -3.4225 5.4325 -3.125 4.625 C-2 2 -2 2 0 0 Z " fill="#DBE8EF" transform="translate(150,17)"/>
<path d="M0 0 C1.32 0.33 2.64 0.66 4 1 C2.84499901 3.31000199 1.60570059 4.29527356 -0.375 5.9375 C-2.69609686 7.86845505 -4.89368369 9.83553386 -7 12 C-7 10.68 -7 9.36 -7 8 C-6.34 8 -5.68 8 -5 8 C-5 6.35 -5 4.7 -5 3 C-3.68 3 -2.36 3 -1 3 C-0.67 2.01 -0.34 1.02 0 0 Z " fill="#D5E4EA" transform="translate(154,141)"/>
<path d="M0 0 C1.65 1.65 3.3 3.3 5 5 C2.89851796 8.98175544 0.63094642 11.35039045 -3 14 C-3.33 13.34 -3.66 12.68 -4 12 C-3.34 12 -2.68 12 -2 12 C-1.67 10.68 -1.34 9.36 -1 8 C0.32 7.67 1.64 7.34 3 7 C3 6.34 3 5.68 3 5 C2.01 5 1.02 5 0 5 C0 3.35 0 1.7 0 0 Z " fill="#C9E0EB" transform="translate(141,114)"/>
<path d="M0 0 C0.66 0 1.32 0 2 0 C1.43736318 6.32966418 -0.34924657 12.21835667 -3 18 C-3.66 18.33 -4.32 18.66 -5 19 C-5.93065133 16.39417629 -6.14917407 15.35801776 -5.0625 12.75 C-4.711875 12.1725 -4.36125 11.595 -4 11 C-3.34 11 -2.68 11 -2 11 C-1.34 7.37 -0.68 3.74 0 0 Z " fill="#2D7AB4" transform="translate(161,15)"/>
<path d="M0 0 C0.66 0 1.32 0 2 0 C1.41432875 4.40240525 0.30527385 8.10723718 -1.4375 12.1875 C-1.86933594 13.21230469 -2.30117187 14.23710938 -2.74609375 15.29296875 C-4 18 -4 18 -6 21 C-6.35353513 17.1111136 -5.49659494 14.49533338 -3.8671875 10.98046875 C-2.30768712 7.41890706 -1.18306833 3.70023499 0 0 Z " fill="#2878B4" transform="translate(175,45)"/>
<path d="M0 0 C0.33 0 0.66 0 1 0 C1 6.27 1 12.54 1 19 C-2.08669204 15.91330796 -2.44855089 15.08072342 -3 11 C-2.01 10.67 -1.02 10.34 0 10 C0 6.7 0 3.4 0 0 Z " fill="#0A69B9" transform="translate(109,16)"/>
<path d="M0 0 C1.32 0 2.64 0 4 0 C4.33 1.65 4.66 3.3 5 5 C4.34 4.67 3.68 4.34 3 4 C3 3.34 3 2.68 3 2 C2.34 2 1.68 2 1 2 C1 4.97 1 7.94 1 11 C0.01 11.495 0.01 11.495 -1 12 C-2.42857143 3.42857143 -2.42857143 3.42857143 0 0 Z " fill="#E8EFF2" transform="translate(149,23)"/>
<path d="M0 0 C0.99 0.66 1.98 1.32 3 2 C1.35 3.98 -0.3 5.96 -2 8 C-3.32 7.67 -4.64 7.34 -6 7 C-6 6.34 -6 5.68 -6 5 C-5.34 5 -4.68 5 -4 5 C-3.34 3.68 -2.68 2.36 -2 1 C-2 1.66 -2 2.32 -2 3 C-1.34 3 -0.68 3 0 3 C0 2.01 0 1.02 0 0 Z " fill="#D7E8EB" transform="translate(160,100)"/>
<path d="M0 0 C0.66 0 1.32 0 2 0 C1.67 1.65 1.34 3.3 1 5 C1.66 5 2.32 5 3 5 C3 7.97 3 10.94 3 14 C0.32522069 11.32522069 -0.6464114 8.507025 -2 5 C-2 4.01 -2 3.02 -2 2 C-1.34 2 -0.68 2 0 2 C0 1.34 0 0.68 0 0 Z " fill="#0D69B9" transform="translate(146,63)"/>
<path d="M0 0 C1.15518918 0.90484792 2.29885406 1.8244206 3.4375 2.75 C4.07558594 3.26046875 4.71367187 3.7709375 5.37109375 4.296875 C7.18810554 6.19667629 7.60423197 7.43586908 8 10 C5.13275314 9.42655063 4.1385485 9.1385485 2 7 C1.28072705 4.68234271 0.6090107 2.34904126 0 0 Z " fill="#136EBA" transform="translate(177,131)"/>
<path d="M0 0 C0.33 0 0.66 0 1 0 C1 1.98 1 3.96 1 6 C2.65 6.33 4.3 6.66 6 7 C4.71937515 8.7074998 3.38232443 10.37373596 2 12 C1.34 12 0.68 12 0 12 C0 8.04 0 4.08 0 0 Z " fill="#D6EAEF" transform="translate(119,135)"/>
<path d="M0 0 C0.63671875 1.83203125 0.63671875 1.83203125 1 4 C-1.62685275 7.22727623 -3.74780225 9.52753358 -8 10 C-6.34908222 5.70761377 -3.26245434 3.1206085 0 0 Z " fill="#CDE3E9" transform="translate(183,102)"/>
<path d="M0 0 C1.32 0.66 2.64 1.32 4 2 C2.68 5.3 1.36 8.6 0 12 C-0.33 12 -0.66 12 -1 12 C-1.33 8.37 -1.66 4.74 -2 1 C-1.34 0.67 -0.68 0.34 0 0 Z " fill="#1871C1" transform="translate(41,64)"/>
<path d="M0 0 C0.33 0.66 0.66 1.32 1 2 C1.66 2 2.32 2 3 2 C2.09456151 4.71631546 1.07525194 7.34771188 0 10 C-0.99 10 -1.98 10 -3 10 C-2.49287967 6.28111761 -1.88391785 3.26545761 0 0 Z " fill="#1F78BE" transform="translate(71,26)"/>
<path d="M0 0 C1 2 1 2 0.5 5 C-1 8 -1 8 -4.625 9.375 C-5.73875 9.58125 -6.8525 9.7875 -8 10 C-5.83735988 6.01618925 -3.28788824 3.11016455 0 0 Z " fill="#2F7DBE" transform="translate(169,95)"/>
<path d="M0 0 C0.33 0 0.66 0 1 0 C1.36666667 7.33333333 1.36666667 7.33333333 -0.375 10.5 C-2 12 -2 12 -4 12 C-2.87204037 7.89100419 -1.66489182 3.92438786 0 0 Z " fill="#D7E9EC" transform="translate(177,46)"/>
<path d="M0 0 C0.99 0 1.98 0 3 0 C2.67 3.3 2.34 6.6 2 10 C-1.69230769 5.07692308 -1.69230769 5.07692308 -2 2 C-1.34 1.34 -0.68 0.68 0 0 Z " fill="#E6EEEE" transform="translate(114,63)"/>
<path d="M0 0 C5 3 5 3 6 5 C5.360625 5.226875 4.72125 5.45375 4.0625 5.6875 C1.72806339 6.85250896 1.72806339 6.85250896 1.25 9.625 C1.1675 10.40875 1.085 11.1925 1 12 C0.67 12 0.34 12 0 12 C0 8.04 0 4.08 0 0 Z " fill="#D2E6E9" transform="translate(119,92)"/>
<path d="M0 0 C3.33773709 3.64116773 3.97864902 7.28607242 5 12 C3 11 3 11 2 8 C1.01 8.495 1.01 8.495 0 9 C-0.87890625 2.84765625 -0.87890625 2.84765625 -1 1 C-0.67 0.67 -0.34 0.34 0 0 Z " fill="#C8DFE8" transform="translate(144,68)"/>
<path d="M0 0 C0.94314127 3.41610225 1.08065117 6.45134864 1 10 C0.01 10 -0.98 10 -2 10 C-2.66 11.32 -3.32 12.64 -4 14 C-4.33 13.34 -4.66 12.68 -5 12 C-4.26821134 9.92803369 -3.44100997 7.8891448 -2.5625 5.875 C-2.08941406 4.77929688 -1.61632813 3.68359375 -1.12890625 2.5546875 C-0.75636719 1.71164063 -0.38382813 0.86859375 0 0 Z " fill="#C8DFE9" transform="translate(43,68)"/>
<path d="M0 0 C0.99 0.33 1.98 0.66 3 1 C3.984375 3.3984375 3.984375 3.3984375 4.75 6.375 C5.01296875 7.35210937 5.2759375 8.32921875 5.546875 9.3359375 C6 12 6 12 5 15 C4.16013916 13.06532058 3.32831973 11.12714871 2.5 9.1875 C2.0359375 8.10855469 1.571875 7.02960937 1.09375 5.91796875 C0 3 0 3 0 0 Z " fill="#196CB1" transform="translate(84,39)"/>
<path d="M0 0 C2.96052484 3.36423277 3.92289822 6.69159287 5 11 C0.125 9.25 0.125 9.25 -1 7 C-0.71758117 4.6599583 -0.38749213 2.32495277 0 0 Z " fill="#2579BD" transform="translate(98,35)"/>
<path d="M0 0 C0.99 0.33 1.98 0.66 3 1 C3.36504603 2.58086048 3.71660506 4.16483907 4.0625 5.75 C4.25972656 6.63171875 4.45695313 7.5134375 4.66015625 8.421875 C4.99825872 10.98679028 4.81158635 12.57091639 4 15 C3.32532438 13.25307205 2.66055844 11.50231475 2 9.75 C1.62875 8.77546875 1.2575 7.8009375 0.875 6.796875 C0 4 0 4 0 0 Z " fill="#2678B8" transform="translate(150,13)"/>
<path d="M0 0 C0.66 0 1.32 0 2 0 C1.48847632 3.78527521 0.79154158 5.44108688 -2 8 C-2.33 8.99 -2.66 9.98 -3 11 C-4.65 11.33 -6.3 11.66 -8 12 C-7.59007812 11.55269531 -7.18015625 11.10539063 -6.7578125 10.64453125 C-3.74359926 7.26255515 -1.33949455 4.420332 0 0 Z " fill="#2574B5" transform="translate(145,118)"/>
<path d="M0 0 C1 2 1 2 0.8125 4.375 C0.74938442 7.17651869 0.74938442 7.17651869 3 9.3125 C3.66 9.869375 4.32 10.42625 5 11 C2 11 2 11 -0.6875 8.5 C-1.450625 7.675 -2.21375 6.85 -3 6 C-1.125 1.125 -1.125 1.125 0 0 Z " fill="#2B78B1" transform="translate(182,115)"/>
<path d="M0 0 C0.66 0 1.32 0 2 0 C2 0.66 2 1.32 2 2 C2.99 2 3.98 2 5 2 C5.103125 2.639375 5.20625 3.27875 5.3125 3.9375 C5.539375 4.618125 5.76625 5.29875 6 6 C6.99 6.33 7.98 6.66 9 7 C9.6875 9.0625 9.6875 9.0625 10 11 C5.86062408 7.69984002 2.41337795 4.82675589 0 0 Z " fill="#2173B2" transform="translate(128,99)"/>
<path d="M0 0 C1.4606285 2.64738916 2 3.89448334 2 7 C1.01 7.495 1.01 7.495 0 8 C-0.2165625 8.99 -0.2165625 8.99 -0.4375 10 C-0.623125 10.66 -0.80875 11.32 -1 12 C-1.99 12.33 -2.98 12.66 -4 13 C-3.52140759 11.39566191 -3.04210442 9.79153584 -2.5625 8.1875 C-2.29566406 7.29417969 -2.02882812 6.40085937 -1.75390625 5.48046875 C-1.19612127 3.64526945 -0.60655425 1.81966274 0 0 Z " fill="#D1E7EB" transform="translate(162,19)"/>
<path d="M0 0 C1.32 0.33 2.64 0.66 4 1 C1.69 3.31 -0.62 5.62 -3 8 C-3.33 6.68 -3.66 5.36 -4 4 C-3.34 4 -2.68 4 -2 4 C-1.34 2.68 -0.68 1.36 0 0 Z " fill="#D3E6EC" transform="translate(186,107)"/>
<path d="M0 0 C4.875 4.75 4.875 4.75 6 7 C5.01 7 4.02 7 3 7 C2.67 7.66 2.34 8.32 2 9 C0.50178941 5.62902617 0 3.79557881 0 0 Z " fill="#D2E4EB" transform="translate(125,97)"/>
<path d="M0 0 C3.96 0 7.92 0 12 0 C12 0.66 12 1.32 12 2 C7.74433453 3.16063604 4.3164922 2.76173392 0 2 C0 1.34 0 0.68 0 0 Z " fill="#D9EEEE" transform="translate(178,82)"/>
<path d="M0 0 C0.33 0 0.66 0 1 0 C1 4.29 1 8.58 1 13 C-1.46278801 10.53721199 -1.99771255 8.29323018 -3 5 C-2.34 4.67 -1.68 4.34 -1 4 C-0.34786708 1.97536745 -0.34786708 1.97536745 0 0 Z " fill="#BFDDEB" transform="translate(118,68)"/>
<path d="M0 0 C0.66 0 1.32 0 2 0 C1.38461538 7.50769231 1.38461538 7.50769231 -0.5625 10 C-1.036875 10.33 -1.51125 10.66 -2 11 C-2.625 8.6875 -2.625 8.6875 -3 6 C-2.34 5.01 -1.68 4.02 -1 3 C-0.34 3 0.32 3 1 3 C0.67 2.01 0.34 1.02 0 0 Z " fill="#1B73BA" transform="translate(52,41)"/>
<path d="M0 0 C0.99 0.495 0.99 0.495 2 1 C4.87910588 1.23274209 7.74146495 1.41972757 10.625 1.5625 C11.42679688 1.60568359 12.22859375 1.64886719 13.0546875 1.69335938 C15.0362511 1.79951457 17.01810271 1.90026855 19 2 C19 2.33 19 2.66 19 3 C13.06 3.33 7.12 3.66 1 4 C0.67 2.68 0.34 1.36 0 0 Z " fill="#CEE8EB" transform="translate(171,147)"/>
<path d="M0 0 C1.98 1.65 3.96 3.3 6 5 C5.67 5.66 5.34 6.32 5 7 C4.01 7 3.02 7 2 7 C1.67 6.01 1.34 5.02 1 4 C0.34 4.99 -0.32 5.98 -1 7 C-0.67 4.69 -0.34 2.38 0 0 Z " fill="#D2E5E9" transform="translate(135,108)"/>
<path d="M0 0 C1.11529858 4.46119431 0.67626679 5.85344531 -1 10 C-1.99 11.485 -1.99 11.485 -3 13 C-3.66 12.67 -4.32 12.34 -5 12 C-4.67 10.68 -4.34 9.36 -4 8 C-3.34 8 -2.68 8 -2 8 C-1.34 5.36 -0.68 2.72 0 0 Z " fill="#2277B8" transform="translate(160,50)"/>
<path d="M0 0 C2.0625 0.4375 2.0625 0.4375 4 1 C3.625 2.9375 3.625 2.9375 3 5 C2.01 5.495 2.01 5.495 1 6 C0.34 5.34 -0.32 4.68 -1 4 C-1 1 -1 1 0 0 Z " fill="#E1ECEE" transform="translate(143,150)"/>
<path d="M0 0 C0.33 0 0.66 0 1 0 C1 1.98 1 3.96 1 6 C-0.98 6 -2.96 6 -5 6 C-3.35830472 3.97945196 -1.69088222 1.97956942 0 0 Z " fill="#D9E6EB" transform="translate(189,96)"/>
<path d="M0 0 C2 3 2 3 1.7578125 5.04296875 C1.171875 7.02864583 0.5859375 9.01432292 0 11 C-2.29013653 7.5647952 -2.17842973 6.014669 -2 2 C-1.34 2 -0.68 2 0 2 C0 1.34 0 0.68 0 0 Z " fill="#1C75C3" transform="translate(139,41)"/>
<path d="M0 0 C0.33 1.32 0.66 2.64 1 4 C-0.1875 5.8125 -0.1875 5.8125 -2 7 C-3.32 6.67 -4.64 6.34 -6 6 C-4.02 4.02 -2.04 2.04 0 0 Z " fill="#2C7AB9" transform="translate(136,130)"/>
<path d="M0 0 C4.875 3.625 4.875 3.625 6 7 C4.35 6.67 2.7 6.34 1 6 C0.67 4.02 0.34 2.04 0 0 Z " fill="#2377B9" transform="translate(170,123)"/>
<path d="M0 0 C0.33 1.32 0.66 2.64 1 4 C1.66 4 2.32 4 3 4 C3 4.66 3 5.32 3 6 C1.68 6.33 0.36 6.66 -1 7 C-1 7.66 -1 8.32 -1 9 C-1.66 8.67 -2.32 8.34 -3 8 C-2.01 5.36 -1.02 2.72 0 0 Z " fill="#2074BC" transform="translate(62,46)"/>
<path d="M0 0 C2.34914492 2.34914492 2.73140357 3.95679446 3.625 7.125 C3.88539063 8.03507812 4.14578125 8.94515625 4.4140625 9.8828125 C4.70410156 10.93082031 4.70410156 10.93082031 5 12 C2.69857565 10.21825212 1.19965609 8.83695835 0.51171875 5.953125 C0.27676898 3.9753389 0.13248542 1.98728128 0 0 Z " fill="#3780B7" transform="translate(145,28)"/>
<path d="M0 0 C2.53552912 1.26776456 2.84919575 2.46823065 4 5 C4.33 5.66 4.66 6.32 5 7 C3.35 7.33 1.7 7.66 0 8 C0 5.36 0 2.72 0 0 Z " fill="#D7E7F0" transform="translate(178,118)"/>
<path d="M0 0 C0 1.65 0 3.3 0 5 C-2.49064888 5.68707555 -4.37886292 6 -7 6 C-6.02388578 4.99702025 -5.04402202 3.99768827 -4.0625 3 C-3.51722656 2.443125 -2.97195312 1.88625 -2.41015625 1.3125 C-1 0 -1 0 0 0 Z " fill="#2072BC" transform="translate(190,108)"/>
<path d="M0 0 C0.33 0 0.66 0 1 0 C1 3.3 1 6.6 1 10 C0.01 10.33 -0.98 10.66 -2 11 C-2 9.35 -2 7.7 -2 6 C-1.34 6 -0.68 6 0 6 C0 4.02 0 2.04 0 0 Z " fill="#0E69B2" transform="translate(84,104)"/>
<path d="M0 0 C0.82810826 3.31243305 1.09278428 5.65976579 1 9 C-0.32 9 -1.64 9 -3 9 C-2.01 6.03 -1.02 3.06 0 0 Z " fill="#3081BF" transform="translate(57,57)"/>
<path d="M0 0 C1.32 0.33 2.64 0.66 4 1 C3.360625 1.598125 2.72125 2.19625 2.0625 2.8125 C-0.20310389 4.90810337 -0.20310389 4.90810337 -1 8 C-1.66 7.67 -2.32 7.34 -3 7 C-2.01 4.69 -1.02 2.38 0 0 Z " fill="#1571B8" transform="translate(164,41)"/>
<path d="M0 0 C1.98 0 3.96 0 6 0 C4.35 1.65 2.7 3.3 1 5 C0.67 3.35 0.34 1.7 0 0 Z " fill="#E1EEF2" transform="translate(130,130)"/>
<path d="M0 0 C1.32 0.33 2.64 0.66 4 1 C0.535 3.97 0.535 3.97 -3 7 C-2.67 5.68 -2.34 4.36 -2 3 C-1.34 3 -0.68 3 0 3 C0 2.01 0 1.02 0 0 Z " fill="#2577B6" transform="translate(186,95)"/>
<path d="M0 0 C0.66 0 1.32 0 2 0 C1.47731534 2.76276177 0.89130413 5.3260876 0 8 C-0.66 8 -1.32 8 -2 8 C-1.47731534 5.23723823 -0.89130413 2.6739124 0 0 Z " fill="#F1F1E9" transform="translate(103,31)"/>
<path d="M0 0 C1.32 1.32 2.64 2.64 4 4 C2.68 3.67 1.36 3.34 0 3 C-0.33 3.66 -0.66 4.32 -1 5 C-1.99 4.67 -2.98 4.34 -4 4 C-2.68 2.68 -1.36 1.36 0 0 Z " fill="#BAD9E6" transform="translate(156,130)"/>
<path d="M0 0 C1.485 0.99 1.485 0.99 3 2 C3 4 3 6 3 8 C2.34 8 1.68 8 1 8 C-0.35439668 5.29120665 -0.06501451 2.99066732 0 0 Z " fill="#1D74B9" transform="translate(166,116)"/>
<path d="M0 0 C1.32 0 2.64 0 4 0 C3.67 1.65 3.34 3.3 3 5 C1.68 3.68 0.36 2.36 -1 1 C-0.67 0.67 -0.34 0.34 0 0 Z " fill="#E5EDEB" transform="translate(151,100)"/>
<path d="M0 0 C0.66 0 1.32 0 2 0 C1.74438677 2.3431213 1.40729228 4.67843403 1 7 C0.01 7.495 0.01 7.495 -1 8 C-1.93065133 5.39417629 -2.14917407 4.35801776 -1.0625 1.75 C-0.711875 1.1725 -0.36125 0.595 0 0 Z " fill="#2472B2" transform="translate(157,26)"/>
<path d="M0 0 C1.98 0.99 1.98 0.99 4 2 C4 4.64 4 7.28 4 10 C2.26337666 6.77484237 1.1094072 3.48670834 0 0 Z " fill="#C8E2EA" transform="translate(144,24)"/>
</svg>
