<?xml version="1.0" encoding="UTF-8"?>
<svg version="1.1" xmlns="http://www.w3.org/2000/svg" width="800" height="433">
<path d="M0 0 C1.50857094 0.90715467 3.01773331 1.81332623 4.52734375 2.71875 C5.37925293 3.23179687 6.23116211 3.74484375 7.10888672 4.2734375 C10.39448393 6.23558439 13.69710015 8.16767115 17.00390625 10.09375 C39.31156534 23.09008739 39.31156534 23.09008739 48.8125 28.9375 C49.78908569 29.52917969 49.78908569 29.52917969 50.78540039 30.1328125 C52.22693839 31.03227701 53.62088563 32.00747202 55 33 C55 33.66 55 34.32 55 35 C54.33097656 35.26401611 53.66195313 35.52803223 52.97265625 35.80004883 C23.15523046 47.65447675 -6.00608982 61.30238469 -34.25683594 76.52246094 C-37.28317016 78.15252277 -40.31716924 79.76780559 -43.3515625 81.3828125 C-83.12951863 102.61161474 -122.06406744 125.62376102 -160 150 C-160.77649902 150.49886719 -161.55299805 150.99773437 -162.35302734 151.51171875 C-189.62796697 169.0720691 -216.60134005 187.14558985 -243 206 C-243.70511719 206.50176758 -244.41023437 207.00353516 -245.13671875 207.52050781 C-255.90438743 215.19029695 -266.46481004 223.10662888 -276.95703125 231.1484375 C-280.73188292 234.03966151 -284.53070488 236.89526994 -288.34863281 239.72924805 C-296.50863543 245.78838475 -304.40906608 252.12783966 -312.26220703 258.578125 C-314.59681109 260.48831522 -316.95267993 262.37109113 -319.3125 264.25 C-322.72967128 266.97457877 -326.12064277 269.72864428 -329.5 272.5 C-330.40878906 273.23992187 -331.31757813 273.97984375 -332.25390625 274.7421875 C-334.11139596 276.2693981 -335.95227519 277.81700121 -337.77734375 279.3828125 C-339.09412109 280.49269531 -339.09412109 280.49269531 -340.4375 281.625 C-341.21996094 282.29789062 -342.00242187 282.97078125 -342.80859375 283.6640625 C-345 285 -345 285 -346.9152832 284.75463867 C-349.2551951 283.9076229 -350.66005383 282.87799927 -352.546875 281.26171875 C-353.218396 280.69517578 -353.88991699 280.12863281 -354.58178711 279.54492188 C-355.29729736 278.93197266 -356.01280762 278.31902344 -356.75 277.6875 C-362.36943904 272.96421013 -368.03521011 268.36549804 -373.9375 264 C-379.73652906 259.71015925 -385.44979946 255.32743366 -391.125 250.875 C-398.59637449 245.02321526 -406.21775397 239.43005591 -414 234 C-412.45981142 229.94783718 -409.93485159 228.16644322 -406.5 225.625 C-405.3235485 224.74438428 -404.14780782 223.86281843 -402.97265625 222.98046875 C-402.33602051 222.50528809 -401.69938477 222.03010742 -401.04345703 221.54052734 C-397.30393088 218.72136247 -393.62636359 215.82241527 -389.9375 212.9375 C-383.01606113 207.5459425 -376.05399714 202.21741772 -369 197 C-367.9783374 196.24299805 -367.9783374 196.24299805 -366.93603516 195.47070312 C-356.82269481 187.98128193 -346.66407035 180.55736535 -336.44921875 173.20703125 C-333.50684317 171.08952457 -330.57238525 168.961756 -327.64453125 166.82421875 C-315.93665807 158.28943415 -304.0206565 150.08729184 -292 142 C-291.42515869 141.61312012 -290.85031738 141.22624023 -290.25805664 140.82763672 C-273.65012589 129.6541738 -256.96868906 118.62085379 -240 108 C-239.16307617 107.47422363 -238.32615234 106.94844727 -237.46386719 106.40673828 C-207.30420793 87.47995404 -176.45200407 69.68955533 -145 53 C-144.09057648 52.51726624 -144.09057648 52.51726624 -143.16278076 52.02478027 C-122.12516222 40.87219413 -100.80861469 30.55657599 -79 21 C-77.84419434 20.49243164 -76.68838867 19.98486328 -75.49755859 19.46191406 C-58.55714398 12.06368049 -41.3733989 5.31076135 -24 -1 C-22.8975293 -1.40879395 -21.79505859 -1.81758789 -20.65917969 -2.23876953 C-19.60375977 -2.61501465 -18.54833984 -2.99125977 -17.4609375 -3.37890625 C-16.52813965 -3.71607666 -15.5953418 -4.05324707 -14.63427734 -4.40063477 C-8.85602266 -5.71533497 -4.78846656 -2.93734913 0 0 Z " fill="#E31736" transform="translate(745,148)"/>
<path d="M0 0 C1.13147461 0.56895996 2.26294922 1.13791992 3.42871094 1.72412109 C11.91440702 6.00531173 20.34421589 10.38640521 28.734375 14.8515625 C31.98446054 16.57968033 35.26169918 18.24535934 38.5625 19.875 C37.5625 21.875 37.5625 21.875 34.01293945 23.2409668 C32.4028879 23.77579723 30.79026587 24.30292324 29.17578125 24.82421875 C27.37064175 25.42287722 25.56563465 26.02193503 23.76074219 26.62133789 C22.8021228 26.93700714 21.84350342 27.25267639 20.85583496 27.57791138 C-23.31632155 42.16825379 -65.80705213 60.29748822 -107.4786377 80.90826416 C-109.39631516 81.8546745 -111.3162821 82.79624035 -113.23730469 83.73583984 C-128.29081918 91.09937902 -143.031827 98.84929749 -157.54833984 107.22314453 C-161.59983421 109.53955579 -165.68454541 111.79448239 -169.76757812 114.0546875 C-182.87327515 121.32217198 -195.71673655 128.95487036 -208.4375 136.875 C-209.24993164 137.37805664 -210.06236328 137.88111328 -210.89941406 138.39941406 C-239.65780616 156.25147683 -267.86392345 175.24471043 -295.4375 194.875 C-296.63221924 195.72505615 -296.63221924 195.72505615 -297.85107422 196.59228516 C-307.83525824 203.71453998 -317.68623554 211.00649443 -327.47412109 218.39550781 C-329.44428729 219.88011452 -331.41861701 221.3589915 -333.39453125 222.8359375 C-334.72139284 223.82807328 -336.04821578 224.82026076 -337.375 225.8125 C-338.02388184 226.29775146 -338.67276367 226.78300293 -339.34130859 227.28295898 C-342.94035593 229.98113668 -346.52027719 232.70196001 -350.08203125 235.44921875 C-350.8510376 236.04162354 -351.62004395 236.63402832 -352.41235352 237.24438477 C-353.8956566 238.38897458 -355.37672855 239.5364634 -356.85522461 240.68725586 C-357.52690674 241.20553955 -358.19858887 241.72382324 -358.890625 242.2578125 C-359.48004883 242.71559082 -360.06947266 243.17336914 -360.67675781 243.64501953 C-362.52320072 244.93486692 -364.40170896 245.9174739 -366.4375 246.875 C-368.77429112 245.24940617 -371.11106289 243.62378461 -373.44775391 241.99804688 C-375.50570465 240.56660074 -377.56398003 239.13562123 -379.62255859 237.70507812 C-384.96559988 233.9911414 -390.30352946 230.27050737 -395.62890625 226.53125 C-405.39678177 219.68307664 -415.12832033 212.89033708 -425.4375 206.875 C-423.9042719 202.8939867 -421.50855529 201.13523817 -418.125 198.625 C-416.94635073 197.7425398 -415.76798579 196.85969977 -414.58984375 195.9765625 C-413.9335498 195.48833008 -413.27725586 195.00009766 -412.60107422 194.49707031 C-410.22043961 192.71226594 -407.86112282 190.90155173 -405.50390625 189.0859375 C-396.00319101 181.77613138 -386.42132991 174.63771214 -376.5859375 167.78515625 C-373.04385098 165.31437973 -369.55285886 162.77961073 -366.06835938 160.22851562 C-355.31268143 152.36528179 -344.24782293 144.99546494 -333.12988281 137.65673828 C-330.20761755 135.72287068 -327.2986835 133.77003464 -324.39208984 131.81274414 C-315.19980323 125.63417625 -305.83375166 119.73715915 -296.4375 113.875 C-295.4690918 113.26881836 -294.50068359 112.66263672 -293.50292969 112.03808594 C-261.65649918 92.13280192 -228.83314811 74.04856227 -195.4375 56.875 C-194.12894043 56.19920898 -194.12894043 56.19920898 -192.79394531 55.50976562 C-144.11864014 30.44957469 -92.82322792 10.30348342 -40.35400391 -5.24414062 C-37.77589051 -6.02279734 -35.22171124 -6.84873364 -32.66796875 -7.703125 C-31.36225671 -8.11546324 -30.05629831 -8.52702286 -28.75 -8.9375 C-27.73550781 -9.27394531 -26.72101563 -9.61039062 -25.67578125 -9.95703125 C-16.89005569 -10.4127444 -7.61932431 -3.85508287 0 0 Z " fill="#E31736" transform="translate(635.4375,89.125)"/>
<path d="M0 0 C0.80649994 0.36027283 1.61299988 0.72054565 2.44393921 1.09173584 C4.14733226 1.85354586 5.85008958 2.61677877 7.55224609 3.38134766 C10.11765956 4.53305763 12.68560387 5.67896806 15.25390625 6.82421875 C24.11563744 10.78784584 32.89749759 14.83764759 41.5234375 19.296875 C38.49464816 21.70173463 35.38415716 23.52249977 31.95703125 25.30859375 C30.84521484 25.89342529 29.73339844 26.47825684 28.58789062 27.08081055 C27.99758057 27.39029633 27.40727051 27.6997821 26.79907227 28.01864624 C12.75744647 35.3959083 -0.89393661 43.30359496 -14.47558594 51.49658203 C-17.12336454 53.08499071 -19.78282674 54.6490926 -22.453125 56.19921875 C-36.87010541 64.61225888 -50.6655261 73.96447548 -64.50605774 83.28294373 C-68.47790619 85.95699979 -72.45783907 88.61833141 -76.44567871 91.26847839 C-82.77814294 95.47728334 -89.06989298 99.73402343 -95.2890625 104.109375 C-96.12743652 104.69775146 -96.96581055 105.28612793 -97.82958984 105.89233398 C-105.66888755 111.40726591 -113.44140902 117.01263159 -121.19726562 122.64404297 C-123.61585243 124.39788109 -126.03792026 126.14681963 -128.4609375 127.89453125 C-129.27933105 128.48484131 -130.09772461 129.07515137 -130.94091797 129.68334961 C-132.50756128 130.81319233 -134.07428837 131.94291889 -135.64111328 133.07250977 C-136.3473584 133.58225342 -137.05360352 134.09199707 -137.78125 134.6171875 C-138.39983887 135.06336426 -139.01842773 135.50954102 -139.65576172 135.96923828 C-141.54351624 137.28993166 -141.54351624 137.28993166 -143.33251953 139.02685547 C-145.4765625 140.296875 -145.4765625 140.296875 -148.38500977 140.16699219 C-151.61131213 139.25894973 -154.06181354 138.08244347 -156.94140625 136.375 C-157.9785376 135.7675293 -159.01566895 135.16005859 -160.08422852 134.53417969 C-161.18307373 133.87836914 -162.28191895 133.22255859 -163.4140625 132.546875 C-165.14485007 131.52768118 -166.87565195 130.50851 -168.60758972 129.49127197 C-169.79049349 128.79645426 -170.97279151 128.10060429 -172.15449524 127.40374756 C-176.15943609 125.04783948 -180.19868492 122.76355098 -184.265625 120.515625 C-185.32273682 119.93006836 -186.37984863 119.34451172 -187.46899414 118.74121094 C-189.4853417 117.62841157 -191.50527214 116.52207493 -193.52905273 115.42285156 C-194.43083252 114.92237305 -195.3326123 114.42189453 -196.26171875 113.90625 C-197.05457275 113.47280273 -197.84742676 113.03935547 -198.66430664 112.59277344 C-200.4765625 111.296875 -200.4765625 111.296875 -201.4765625 108.296875 C-200.97431152 107.95543457 -200.47206055 107.61399414 -199.95458984 107.26220703 C-197.58578006 105.65042285 -195.21867796 104.0361464 -192.8515625 102.421875 C-192.06265625 101.885625 -191.27375 101.349375 -190.4609375 100.796875 C-186.1668029 97.86595773 -181.90783241 94.89612737 -177.69317627 91.85173035 C-168.66820047 85.34067158 -159.40821422 79.20855258 -150.1015625 73.109375 C-149.27050995 72.56361816 -148.4394574 72.01786133 -147.58322144 71.45556641 C-134.00087589 62.53870565 -120.34374275 53.76597635 -106.4765625 45.296875 C-105.79835449 44.88163574 -105.12014648 44.46639648 -104.42138672 44.03857422 C-100.12980689 41.4178554 -95.80925541 38.84891374 -91.4765625 36.296875 C-90.61659668 35.78833984 -89.75663086 35.27980469 -88.87060547 34.75585938 C-67.9033127 22.37047847 -46.6177022 10.61740558 -24.91503906 -0.43359375 C-23.34000522 -1.25359535 -21.78242675 -2.10846863 -20.24902344 -3.00390625 C-19.5687207 -3.38933594 -18.88841797 -3.77476563 -18.1875 -4.171875 C-17.6104834 -4.51669922 -17.0334668 -4.86152344 -16.43896484 -5.21679688 C-11.29034629 -6.49274215 -4.70172791 -2.11296173 0 0 Z " fill="#002068" transform="translate(300.4765625,119.703125)"/>
<path d="M0 0 C1.51902816 0.46239138 3.03898628 0.92173764 4.55981445 1.37817383 C9.22150934 2.78949132 13.86113595 4.26567969 18.5 5.75 C20.11313977 6.26216457 21.72642049 6.77388542 23.33984375 7.28515625 C27.22819793 8.51835497 31.11462473 9.75744929 35 11 C35 11.99 35 12.98 35 14 C34.38406982 14.2902002 33.76813965 14.58040039 33.13354492 14.87939453 C-20.94674441 40.42905915 -72.09803844 71.1200923 -122.25 103.625 C-123.06251221 104.14916504 -123.87502441 104.67333008 -124.7121582 105.21337891 C-128.87988765 107.91557447 -132.98759786 110.67673916 -137.0390625 113.55078125 C-137.85213867 114.11909668 -138.66521484 114.68741211 -139.50292969 115.27294922 C-141.04461299 116.35479326 -142.57477592 117.45331103 -144.09082031 118.57080078 C-149.16383442 122.10815494 -149.16383442 122.10815494 -152.80859375 121.63671875 C-153.86175781 121.09660156 -154.91492188 120.55648437 -156 120 C-157.72095244 119.22277878 -159.44383092 118.44981663 -161.16796875 117.6796875 C-163.17549573 116.74697656 -165.18195595 115.81196709 -167.1875 114.875 C-177.69606703 110.00649236 -188.29080691 105.40743914 -199 101 C-199 100.01 -199 99.02 -199 98 C-197.24121094 96.55224609 -197.24121094 96.55224609 -194.734375 95.0234375 C-193.32696045 94.15428711 -193.32696045 94.15428711 -191.89111328 93.26757812 C-190.8545459 92.64302734 -189.81797852 92.01847656 -188.75 91.375 C-187.6760498 90.71693359 -186.60209961 90.05886719 -185.49560547 89.38085938 C-183.18904832 87.96991405 -180.88044314 86.5632539 -178.56738281 85.16308594 C-175.64178105 83.39158583 -172.7244075 81.60711816 -169.81019592 79.81695557 C-129.52776984 55.07307048 -88.16129483 31.99724716 -46.0078125 10.59375 C-41.49346289 8.30129717 -37.04129547 5.93042934 -32.6171875 3.46875 C-30.6411517 2.41567775 -28.66461793 1.36353917 -26.6875 0.3125 C-25.83647705 -0.18789795 -24.9854541 -0.6882959 -24.10864258 -1.20385742 C-15.63769664 -5.57519519 -8.49469421 -2.74435997 0 0 Z " fill="#002068" transform="translate(200,83)"/>
<path d="M0 0 C0.96431946 0.26109558 0.96431946 0.26109558 1.94812012 0.52746582 C37.79086432 10.25393384 73.04952812 22.30952704 107.5625 36 C108.27449554 36.28051208 108.98649109 36.56102417 109.72006226 36.85003662 C120.08413356 40.94788457 130.03963931 45.63001796 139.9375 50.75 C137.43710205 53.66970282 134.81558355 54.85039368 131.29296875 56.31640625 C130.15102051 56.79762939 129.00907227 57.27885254 127.83251953 57.7746582 C126.59677616 58.28750466 125.3609342 58.8001136 124.125 59.3125 C121.58281091 60.37589586 119.04286036 61.44453019 116.50390625 62.515625 C115.86600159 62.78425858 115.22809692 63.05289215 114.57086182 63.32966614 C110.47215992 65.06680491 106.42742971 66.89349638 102.40234375 68.796875 C101.41145752 69.26407959 100.42057129 69.73128418 99.3996582 70.21264648 C97.54970848 71.0928093 95.70542755 71.985018 93.86791992 72.89086914 C93.03752197 73.28395264 92.20712402 73.67703613 91.3515625 74.08203125 C90.6395166 74.42983643 89.9274707 74.7776416 89.19384766 75.13598633 C84.15572327 76.50699724 79.77995123 74.42148875 75.28125 72.23046875 C74.19247559 71.7089624 73.10370117 71.18745605 71.98193359 70.65014648 C70.81227051 70.08497314 69.64260742 69.5197998 68.4375 68.9375 C23.92375757 47.81067994 -23.54746155 32.53404614 -71.0625 19.75 C-71.0625 18.76 -71.0625 17.77 -71.0625 16.75 C-62.37226761 13.25111874 -53.67538832 9.76940498 -44.97070312 6.30664062 C-42.54318213 5.34078268 -40.1176668 4.37042353 -37.69335938 3.39648438 C-34.8417275 2.2525476 -31.98461955 1.12378768 -29.125 0 C-28.2997583 -0.33451172 -27.4745166 -0.66902344 -26.62426758 -1.01367188 C-17.0884823 -4.71611643 -9.61298583 -2.63137477 0 0 Z " fill="#E31736" transform="translate(314.0625,36.25)"/>
<path d="M0 0 C0.76770721 0.21630066 1.53541443 0.43260132 2.3263855 0.65545654 C49.0087474 13.84436203 94.85738031 30.18702588 139.5625 49 C139.5625 49.66 139.5625 50.32 139.5625 51 C132.80012007 52.97658515 126.03738979 54.95196802 119.27441406 56.92651367 C116.9735518 57.59843685 114.67277002 58.27063567 112.37207031 58.94311523 C109.06596637 59.90941611 105.75957472 60.8747268 102.453125 61.83984375 C101.42382874 62.14091537 100.39453247 62.441987 99.33404541 62.75218201 C98.37335144 63.032397 97.41265747 63.312612 96.42285156 63.60131836 C95.15710297 63.97105019 95.15710297 63.97105019 93.86578369 64.34825134 C93.10570007 64.5633284 92.34561646 64.77840546 91.5625 65 C90.5182914 65.32249474 90.5182914 65.32249474 89.45298767 65.65150452 C86.26102664 66.23991565 83.60007676 64.62788146 80.73828125 63.34375 C79.32436069 62.73464131 77.91037641 62.1256805 76.49633789 61.5168457 C75.74595245 61.18882965 74.99556702 60.8608136 74.22244263 60.52285767 C27.06306897 39.9739734 -22.01265355 24.98809984 -71.4375 11 C-68.70619063 8.26869063 -65.59945535 7.72403763 -61.97265625 6.72265625 C-61.22471298 6.51064072 -60.47676971 6.29862518 -59.7061615 6.08018494 C-57.30580673 5.40142005 -54.90297942 4.73190657 -52.5 4.0625 C-50.91584784 3.61582899 -49.33186144 3.16856969 -47.74804688 2.72070312 C-44.68856835 1.85659815 -41.62683805 1.00130012 -38.56298828 0.15283203 C-36.07864498 -0.5361571 -33.60715968 -1.24771431 -31.13623047 -1.98486328 C-19.72260735 -5.34134751 -11.18588406 -3.19172699 0 0 Z " fill="#E31736" transform="translate(418.4375,4)"/>
<path d="M0 0 C3.78443516 2.69610086 6.30988589 5.82809517 7.79296875 10.27734375 C8.33078753 16.28643434 8.26147366 21.1343882 4.79296875 26.27734375 C1.11350138 30.42853771 -1.6501894 32.99325021 -7.23046875 33.61328125 C-18.49829339 33.74460788 -18.49829339 33.74460788 -23.20703125 29.27734375 C-27.69434075 24.41609179 -29.71402392 20.11978533 -29.5234375 13.3984375 C-28.76634625 8.32312208 -26.40056425 4.44027334 -22.76953125 0.90234375 C-15.29746346 -3.8360407 -7.81256615 -4.38189838 0 0 Z M-23.14453125 8.52734375 C-24.55523625 12.17858022 -24.88966427 15.45159828 -24.20703125 19.27734375 C-22.18009753 23.11403972 -20.10631699 26.27500783 -16.20703125 28.27734375 C-11.12579981 29.42348618 -6.92045808 29.8621262 -2.20703125 27.27734375 C-3.32078125 26.19453125 -3.32078125 26.19453125 -4.45703125 25.08984375 C-7.20703125 22.27734375 -7.20703125 22.27734375 -9.33203125 19.46484375 C-10.26015625 18.38203125 -10.26015625 18.38203125 -11.20703125 17.27734375 C-12.19703125 17.27734375 -13.18703125 17.27734375 -14.20703125 17.27734375 C-14.20703125 20.24734375 -14.20703125 23.21734375 -14.20703125 26.27734375 C-15.19703125 26.27734375 -16.18703125 26.27734375 -17.20703125 26.27734375 C-17.20703125 19.34734375 -17.20703125 12.41734375 -17.20703125 5.27734375 C-4.75086483 5.89398565 -4.75086483 5.89398565 -2.30078125 7.62109375 C-0.64759963 10.12448306 -1.01262961 12.36131909 -1.20703125 15.27734375 C-2.85703125 15.93734375 -4.50703125 16.59734375 -6.20703125 17.27734375 C-4.55703125 19.91734375 -2.90703125 22.55734375 -1.20703125 25.27734375 C2.30767645 21.87601372 3.68913231 20.52338099 4.10546875 15.52734375 C4.04137238 11.11270619 2.70179369 8.65787003 -0.20703125 5.27734375 C-3.88000987 2.12907636 -7.23996735 1.75396807 -11.92578125 1.92578125 C-16.69603781 2.66092353 -19.98210305 4.85484648 -23.14453125 8.52734375 Z M-14.20703125 8.27734375 C-14.20703125 9.92734375 -14.20703125 11.57734375 -14.20703125 13.27734375 C-11.56703125 13.27734375 -8.92703125 13.27734375 -6.20703125 13.27734375 C-5.87703125 11.95734375 -5.54703125 10.63734375 -5.20703125 9.27734375 C-8.16367644 7.79902115 -10.94932862 8.21701592 -14.20703125 8.27734375 Z " fill="#E21736" transform="translate(495.20703125,399.72265625)"/>
</svg>
