<?xml version="1.0" encoding="UTF-8"?>
<svg version="1.1" xmlns="http://www.w3.org/2000/svg" width="161" height="152">
<path d="M0 0 C53.13 0 106.26 0 161 0 C161 50.16 161 100.32 161 152 C107.87 152 54.74 152 0 152 C0 101.84 0 51.68 0 0 Z " fill="#014FF7" transform="translate(0,0)"/>
<path d="M0 0 C15.03476348 11.55564466 25.85375153 25.78505404 29.36328125 44.81640625 C29.36328125 46.79640625 29.36328125 48.77640625 29.36328125 50.81640625 C18.14328125 50.81640625 6.92328125 50.81640625 -4.63671875 50.81640625 C-5.62671875 46.85640625 -5.62671875 46.85640625 -6.63671875 42.81640625 C-10.56823581 34.55377531 -17.41901943 28.20135707 -25.94921875 24.87890625 C-34.46693494 22.48562125 -43.67425551 22.8723824 -51.63671875 26.81640625 C-59.67140687 31.56619426 -65.5595113 38.36590186 -68.16796875 47.40234375 C-69.90736103 56.36021397 -68.90454238 65.34346587 -64.1953125 73.23046875 C-58.85230183 80.6437411 -51.80239199 86.26290231 -42.63671875 87.81640625 C-32.38742173 88.76022641 -23.37667351 87.20729619 -15.26171875 80.56640625 C-8.95180324 74.50216368 -6.78260189 69.3999388 -4.63671875 60.81640625 C6.58328125 60.81640625 17.80328125 60.81640625 29.36328125 60.81640625 C28.67574181 67.69180067 28.11533275 72.71331197 25.67578125 78.87890625 C25.40741455 79.56936035 25.13904785 80.25981445 24.86254883 80.97119141 C18.26041531 97.37906605 5.49331023 109.84364406 -10.63671875 116.81640625 C-11.69246094 117.285625 -12.74820313 117.75484375 -13.8359375 118.23828125 C-28.8540126 124.11994763 -46.73524861 124.18471007 -61.63671875 117.81640625 C-79.90386078 109.24738267 -92.8254018 95.72582956 -100.19921875 76.87890625 C-105.2360116 62.57315369 -104.66311881 44.71956582 -98.63671875 30.81640625 C-89.36480113 11.49816706 -75.45080984 0.04799862 -56.06640625 -8.2890625 C-38.00367851 -14.47453036 -15.71773073 -10.39704813 0 0 Z " fill="#F3F4F7" transform="translate(116.63671875,19.18359375)"/>
</svg>
