<?xml version="1.0" encoding="UTF-8"?>
<svg version="1.1" xmlns="http://www.w3.org/2000/svg" width="158" height="146">
<path d="M0 0 C52.14 0 104.28 0 158 0 C158 48.18 158 96.36 158 146 C105.86 146 53.72 146 0 146 C0 97.82 0 49.64 0 0 Z " fill="#DF1D29" transform="translate(0,0)"/>
<path d="M0 0 C0.495 0.495 0.495 0.495 1 1 C0.91062197 2.52519276 0.75462854 4.04681929 0.5625 5.5625 C0.46066406 6.38878906 0.35882813 7.21507812 0.25390625 8.06640625 C0.17011719 8.70449219 0.08632813 9.34257813 0 10 C-1.32 10.33 -2.64 10.66 -4 11 C-1.03 11.495 -1.03 11.495 2 12 C2.495 15.465 2.495 15.465 3 19 C3.66386719 18.41089844 4.32773437 17.82179688 5.01171875 17.21484375 C5.89472656 16.46332031 6.77773438 15.71179688 7.6875 14.9375 C8.55761719 14.18339844 9.42773438 13.42929688 10.32421875 12.65234375 C13 11 13 11 15.83203125 11.25390625 C16.54746094 11.50011719 17.26289062 11.74632812 18 12 C18 13.98 18 15.96 18 18 C16.02 18.99 16.02 18.99 14 20 C14 18.68 14 17.36 14 16 C14.99 16 15.98 16 17 16 C17 15.34 17 14.68 17 14 C11.51098003 16.42162646 8.74160571 20.86603772 6 26 C5.05928454 29.34694785 5.05928454 29.34694785 5 32 C10.69716925 30.61886806 13.45267762 26.31880827 17 22 C18.22263072 20.55693691 19.4516116 19.11922511 20.6875 17.6875 C21.22761719 17.05199219 21.76773438 16.41648437 22.32421875 15.76171875 C26.81829913 11.03717271 26.81829913 11.03717271 30.359375 10.92578125 C31.54273437 11.11720703 31.54273437 11.11720703 32.75 11.3125 C33.54921875 11.43238281 34.3484375 11.55226563 35.171875 11.67578125 C36.07679687 11.83626953 36.07679687 11.83626953 37 12 C35.40376856 16.39383706 33.21975667 20.28995807 30.875 24.3125 C30.50246094 24.95767578 30.12992188 25.60285156 29.74609375 26.26757812 C28.83367787 27.84675945 27.91724491 29.42361864 27 31 C27.77730469 30.21238281 28.55460937 29.42476562 29.35546875 28.61328125 C31.49069341 26.50328819 33.55463961 24.72080917 36 23 C34.59012409 28.169545 31.13677955 31.75341352 27 35 C24.7734375 35.703125 24.7734375 35.703125 23 36 C22.67 35.01 22.34 34.02 22 33 C20.35 34.65 18.7 36.3 17 38 C17.77085938 38.39832031 18.54171875 38.79664063 19.3359375 39.20703125 C20.33882812 39.73683594 21.34171875 40.26664063 22.375 40.8125 C23.37273438 41.33457031 24.37046875 41.85664062 25.3984375 42.39453125 C28 44 28 44 30 47 C29.43410156 46.83886719 28.86820313 46.67773438 28.28515625 46.51171875 C25.93807777 45.98613365 23.8398366 45.83282434 21.4375 45.8125 C20.67308594 45.79832031 19.90867188 45.78414062 19.12109375 45.76953125 C16.69846497 45.8676625 16.69846497 45.8676625 14 48 C12.69791667 46.95833333 11.39583333 45.91666667 10.09375 44.875 C3.20573546 41.99642676 -5.05664529 44.96057656 -11.93359375 46.66601562 C-17.34920765 47.91678545 -21.53572611 48.17728643 -27 47 C-30.16830752 44.37097887 -32.74401268 42.18218699 -33.23828125 37.96875 C-33.58233906 26.52430063 -28.76873048 18.36774087 -21.26953125 10.08984375 C-14.87969618 3.44610795 -9.56504424 -0.3542609 0 0 Z " fill="#DF212D" transform="translate(37,51)"/>
<path d="M0 0 C2.09056748 1.41859936 3.70803106 2.83303106 5.5 4.625 C5.94730469 4.20347656 6.39460938 3.78195313 6.85546875 3.34765625 C12.8602812 -2.09380492 12.8602812 -2.09380492 17.5 -2.375 C17.5 -0.395 17.5 1.585 17.5 3.625 C18.77208622 3.00255401 20.04261882 2.37693233 21.3125 1.75 C22.02019531 1.40195312 22.72789062 1.05390625 23.45703125 0.6953125 C25.71246418 -0.4406486 25.71246418 -0.4406486 28.5 -2.375 C27.14891639 0.71510211 25.70982067 2.59410153 23.125 4.75 C22.53976563 5.24757813 21.95453125 5.74515625 21.3515625 6.2578125 C17.97090802 8.75407636 15.4819038 9.89106346 11.25 9.75 C10.0125 9.70875 8.775 9.6675 7.5 9.625 C8.6875 7.625 8.6875 7.625 10.5 5.625 C13.1875 5.375 13.1875 5.375 15.5 5.625 C15.83 3.645 16.16 1.665 16.5 -0.375 C3.14504774 10.10083269 -3.86706007 24.94748135 -9.5 40.625 C-6.13622873 38.12054509 -3.81006201 35.92277919 -1.6875 32.3125 C1.35744263 27.64048879 4.47208329 23.27080932 9.5 20.625 C12.99803681 20.36014864 16.10211733 20.79641795 19.5 21.625 C18.63375 23.21441406 18.63375 23.21441406 17.75 24.8359375 C16.99978212 26.22384058 16.24979399 27.61186787 15.5 29 C15.1184375 29.69867188 14.736875 30.39734375 14.34375 31.1171875 C12.24275256 34.6678946 12.24275256 34.6678946 11.5 38.625 C13.15 36.645 14.8 34.665 16.5 32.625 C17.16 32.955 17.82 33.285 18.5 33.625 C11.90923798 42.9562507 11.90923798 42.9562507 7.5 45.625 C5.1875 45.375 5.1875 45.375 3.5 44.625 C3.5 43.965 3.5 43.305 3.5 42.625 C2.7575 43.16125 2.015 43.6975 1.25 44.25 C-0.11125 44.930625 -0.11125 44.930625 -1.5 45.625 C-3.6875 44.8125 -3.6875 44.8125 -5.5 43.625 C-7.82357511 43.44009993 -7.82357511 43.44009993 -10.5 45.625 C-12.6875 45.25 -12.6875 45.25 -14.5 44.625 C-14.5270043 43.16676788 -14.54639787 41.70839325 -14.5625 40.25 C-14.57410156 39.43789062 -14.58570313 38.62578125 -14.59765625 37.7890625 C-14.5 35.625 -14.5 35.625 -13.5 33.625 C-14.49 33.13 -14.49 33.13 -15.5 32.625 C-15.73976562 33.35976562 -15.97953125 34.09453125 -16.2265625 34.8515625 C-17.68061907 38.01837282 -19.28626233 39.68647697 -21.875 42 C-23.03128906 43.06347656 -23.03128906 43.06347656 -24.2109375 44.1484375 C-26.5 45.625 -26.5 45.625 -28.7890625 45.3515625 C-29.35367188 45.11179688 -29.91828125 44.87203125 -30.5 44.625 C-31.87343709 40.62954664 -31.31341465 37.70513616 -29.72265625 33.828125 C-27.36291773 29.57607221 -24.16302681 25.81537819 -20.5 22.625 C-19.51 22.625 -18.52 22.625 -17.5 22.625 C-17.5 24.935 -17.5 27.245 -17.5 29.625 C-16.51 29.625 -15.52 29.625 -14.5 29.625 C-14.5 30.285 -14.5 30.945 -14.5 31.625 C-11.64645272 29.09905029 -10.03309536 26.25108615 -8.1875 22.9375 C-5.28818224 17.86060954 -2.15811271 13.18089129 1.5 8.625 C-0.22271227 7.46948547 -1.95346917 6.32595881 -3.6875 5.1875 C-4.65042969 4.54941406 -5.61335938 3.91132812 -6.60546875 3.25390625 C-9.34977757 1.70953813 -11.40418343 1.02683359 -14.5 0.625 C-14.54125 1.615 -14.5825 2.605 -14.625 3.625 C-15.33783009 8.54453158 -17.92150703 12.25216755 -21.5 15.625 C-24.875 16.625 -24.875 16.625 -27.5 16.625 C-28.6984792 13.79223098 -28.52207748 12.68473906 -27.4375 9.75 C-25.15901172 6.0750189 -22.65523151 3.56988274 -19.5 0.625 C-30.49849442 3.9578771 -37.27155929 15.19226531 -42.4375 24.75 C-44.9191994 29.96323431 -45.5 34.91257558 -45.5 40.625 C-42.15332913 40.55806658 -39.50355131 40.3838932 -36.76953125 38.31640625 C-32.641137 33.90259215 -31.27829979 29.54276222 -30.5 23.625 C-33.0734132 25.25482836 -34.3280617 26.14602902 -35.375 29.0625 C-36.92005168 32.58178437 -39.2512457 33.71812247 -42.5 35.625 C-42.27434683 30.09649745 -40.96726423 27.08215402 -37.19921875 23.00390625 C-34.76774613 21.03078019 -32.58062525 20.69834822 -29.5 20.625 C-27.97229189 23.68041622 -27.8622408 26.33392184 -28.5 29.625 C-31.4533179 36.07671125 -35.02324438 41.38662219 -41.5 44.625 C-47.34923339 45.08922487 -47.34923339 45.08922487 -49.5 44.625 C-52.07701532 42.00102313 -52.98796958 39.89999223 -53.125 36.25 C-52.65240806 23.39549932 -43.31732124 13.0409638 -34.5 4.625 C-25.61702838 -3.54062321 -11.01136235 -6.09943111 0 0 Z " fill="#F4E3E4" transform="translate(125.5,53.375)"/>
<path d="M0 0 C1 1 1 1 1.1875 3.9375 C1 7 1 7 -1 9 C-1.99 9 -2.98 9 -4 9 C-3.42655063 6.13275314 -3.1385485 5.1385485 -1 3 C-7.83379941 3.90325001 -11.85441149 8.55641309 -16.25 13.5625 C-22.38591866 22.10895814 -25.27357455 27.81569787 -25.59375 38.328125 C-25.24627084 41.1874992 -25.24627084 41.1874992 -22.734375 42.86328125 C-16.58316895 45.42042548 -10.01235526 43.04109358 -3.78442383 41.49023438 C7.17999868 38.76268218 15.59569648 37.06778708 26.00390625 42.61328125 C28 44 28 44 30 47 C29.43410156 46.83886719 28.86820313 46.67773438 28.28515625 46.51171875 C25.93807777 45.98613365 23.8398366 45.83282434 21.4375 45.8125 C20.67308594 45.79832031 19.90867188 45.78414062 19.12109375 45.76953125 C16.69846497 45.8676625 16.69846497 45.8676625 14 48 C12.69791667 46.95833333 11.39583333 45.91666667 10.09375 44.875 C3.20573546 41.99642676 -5.05664529 44.96057656 -11.93359375 46.66601562 C-17.34920765 47.91678545 -21.53572611 48.17728643 -27 47 C-30.16830752 44.37097887 -32.74401268 42.18218699 -33.23828125 37.96875 C-33.58233906 26.52430063 -28.76873048 18.36774087 -21.26953125 10.08984375 C-14.87969618 3.44610795 -9.56504424 -0.3542609 0 0 Z " fill="#F5E9E9" transform="translate(37,51)"/>
<path d="M0 0 C0.763125 0.20625 1.52625 0.4125 2.3125 0.625 C2.3125 2.605 2.3125 4.585 2.3125 6.625 C0.3325 7.615 0.3325 7.615 -1.6875 8.625 C-1.6875 7.305 -1.6875 5.985 -1.6875 4.625 C-0.6975 4.625 0.2925 4.625 1.3125 4.625 C1.3125 3.965 1.3125 3.305 1.3125 2.625 C-4.17651997 5.04662646 -6.94589429 9.49103772 -9.6875 14.625 C-10.62821546 17.97194785 -10.62821546 17.97194785 -10.6875 20.625 C-4.99033075 19.24386806 -2.23482238 14.94380827 1.3125 10.625 C2.53513072 9.18193691 3.7641116 7.74422511 5 6.3125 C5.54011719 5.67699219 6.08023438 5.04148437 6.63671875 4.38671875 C11.13079913 -0.33782729 11.13079913 -0.33782729 14.671875 -0.44921875 C15.46078125 -0.32160156 16.2496875 -0.19398437 17.0625 -0.0625 C17.86171875 0.05738281 18.6609375 0.17726562 19.484375 0.30078125 C20.08765625 0.40777344 20.6909375 0.51476563 21.3125 0.625 C19.71626856 5.01883706 17.53225667 8.91495807 15.1875 12.9375 C14.81496094 13.58267578 14.44242188 14.22785156 14.05859375 14.89257812 C13.14617787 16.47175945 12.22974491 18.04861864 11.3125 19.625 C12.08980469 18.83738281 12.86710937 18.04976562 13.66796875 17.23828125 C15.80319341 15.12828819 17.86713961 13.34580917 20.3125 11.625 C18.90262409 16.794545 15.44927955 20.37841352 11.3125 23.625 C9.0859375 24.328125 9.0859375 24.328125 7.3125 24.625 C6.9825 23.635 6.6525 22.645 6.3125 21.625 C5.57 22.140625 4.8275 22.65625 4.0625 23.1875 C1.3125 24.625 1.3125 24.625 -1 24.3125 C-1.556875 24.085625 -2.11375 23.85875 -2.6875 23.625 C-3.0175 22.305 -3.3475 20.985 -3.6875 19.625 C-4.409375 20.264375 -5.13125 20.90375 -5.875 21.5625 C-8.69891989 23.63337459 -10.22676481 24.44285604 -13.6875 24.625 C-14.6775 23.965 -15.6675 23.305 -16.6875 22.625 C-17.22887809 18.60333419 -17.04015872 16.2879984 -15.125 12.6875 C-4.52432187 -0.63130073 -4.52432187 -0.63130073 0 0 Z " fill="#F4E7E7" transform="translate(52.6875,62.375)"/>
<path d="M0 0 C10.56 0 21.12 0 32 0 C32 10.89 32 21.78 32 33 C29.46134336 29.8266792 27.00885296 26.65972391 24.60107422 23.39453125 C17.6698926 14.09774921 10.01097508 6.93242968 0 1 C0 0.67 0 0.34 0 0 Z " fill="#F6F3F3" transform="translate(126,0)"/>
<path d="M0 0 C10.56 0 21.12 0 32 0 C29.46997003 2.02402398 26.93929646 4.04745583 24.38671875 6.04296875 C15.20182155 13.34037622 8.40270834 20.85518365 2.34765625 30.91015625 C1.90292969 31.59980469 1.45820312 32.28945313 1 33 C0.67 33 0.34 33 0 33 C0 22.11 0 11.22 0 0 Z " fill="#F6F4F4" transform="translate(0,0)"/>
<path d="M0 0 C-4.59930314 3.7369338 -4.59930314 3.7369338 -6.796875 5.1796875 C-16.2411798 11.56403754 -25.20595674 23.19165226 -27.51953125 34.55078125 C-27.85824467 37.38242542 -28 40.15053665 -28 43 C-24.65332913 42.93306658 -22.00355131 42.7588932 -19.26953125 40.69140625 C-15.141137 36.27759215 -13.77829979 31.91776222 -13 26 C-15.5734132 27.62982836 -16.8280617 28.52102902 -17.875 31.4375 C-19.42005168 34.95678437 -21.7512457 36.09312247 -25 38 C-24.77434683 32.47149745 -23.46726423 29.45715402 -19.69921875 25.37890625 C-17.26774613 23.40578019 -15.08062525 23.07334822 -12 23 C-10.47229189 26.05541622 -10.3622408 28.70892184 -11 32 C-13.9533179 38.45171125 -17.52324438 43.76162219 -24 47 C-29.84923339 47.46422487 -29.84923339 47.46422487 -32 47 C-34.57701532 44.37602313 -35.48796958 42.27499223 -35.625 38.625 C-35.15240806 25.77049932 -25.81732124 15.4159638 -17 7 C-11.43420061 2.08220278 -7.60841029 -0.35387955 0 0 Z " fill="#F5ECEC" transform="translate(108,51)"/>
<path d="M0 0 C3.13444195 1.73004913 5.74574322 3.41761822 8.28125 5.953125 C8.72855469 5.53160156 9.17585938 5.11007813 9.63671875 4.67578125 C15.6415312 -0.76567992 15.6415312 -0.76567992 20.28125 -1.046875 C20.28125 0.933125 20.28125 2.913125 20.28125 4.953125 C21.55333622 4.33067901 22.82386882 3.70505733 24.09375 3.078125 C24.80144531 2.73007812 25.50914062 2.38203125 26.23828125 2.0234375 C28.49371418 0.8874764 28.49371418 0.8874764 31.28125 -1.046875 C29.93016639 2.04322711 28.49107067 3.92222653 25.90625 6.078125 C25.32101563 6.57570313 24.73578125 7.07328125 24.1328125 7.5859375 C20.75215802 10.08220136 18.2631538 11.21918846 14.03125 11.078125 C12.79375 11.036875 11.55625 10.995625 10.28125 10.953125 C11.46875 8.953125 11.46875 8.953125 13.28125 6.953125 C15.96875 6.703125 15.96875 6.703125 18.28125 6.953125 C18.61125 4.973125 18.94125 2.993125 19.28125 0.953125 C18.7965625 1.31664062 18.311875 1.68015625 17.8125 2.0546875 C10.546875 7.50390625 10.546875 7.50390625 3.28125 12.953125 C3.28125 11.633125 3.28125 10.313125 3.28125 8.953125 C1.25346309 7.17289193 1.25346309 7.17289193 -1.40625 5.765625 C-2.27636719 5.25644531 -3.14648438 4.74726562 -4.04296875 4.22265625 C-6.64150517 2.98977401 -8.88613811 2.37674083 -11.71875 1.953125 C-11.76 2.943125 -11.80125 3.933125 -11.84375 4.953125 C-12.55658009 9.87265658 -15.14025703 13.58029255 -18.71875 16.953125 C-22.09375 17.953125 -22.09375 17.953125 -24.71875 17.953125 C-25.9172292 15.12035598 -25.74082748 14.01286406 -24.65625 11.078125 C-22.37776172 7.4031439 -19.87398151 4.89800774 -16.71875 1.953125 C-17.04875 1.293125 -17.37875 0.633125 -17.71875 -0.046875 C-12.05478023 -1.93486492 -5.60984077 -2.1601111 0 0 Z " fill="#F5EFEF" transform="translate(122.71875,52.046875)"/>
<path d="M0 0 C0.33 0 0.66 0 1 0 C1 8.25 1 16.5 1 25 C-5.93 25 -12.86 25 -20 25 C-18.35 23.35 -16.7 21.7 -15 20 C-13.09172338 17.92031392 -11.26569367 15.77521947 -9.4375 13.625 C-8.96892578 13.08617187 -8.50035156 12.54734375 -8.01757812 11.9921875 C-4.80419738 8.21702691 -2.34932673 4.36698381 0 0 Z " fill="#F6F2F2" transform="translate(157,121)"/>
<path d="M0 0 C2.45323189 3.06653987 4.87003484 6.13062818 7.25 9.25 C11.52371385 14.76059864 16.06681639 20.06681639 21 25 C14.07 25 7.14 25 0 25 C0 16.75 0 8.5 0 0 Z " fill="#F6F2F2" transform="translate(0,121)"/>
<path d="M0 0 C-0.86625 1.58941406 -0.86625 1.58941406 -1.75 3.2109375 C-2.50021788 4.59884058 -3.25020601 5.98686787 -4 7.375 C-4.3815625 8.07367188 -4.763125 8.77234375 -5.15625 9.4921875 C-7.25724744 13.0428946 -7.25724744 13.0428946 -8 17 C-6.35 15.02 -4.7 13.04 -3 11 C-2.34 11.33 -1.68 11.66 -1 12 C-7.59076202 21.3312507 -7.59076202 21.3312507 -12 24 C-14.3125 23.75 -14.3125 23.75 -16 23 C-16.33 21.68 -16.66 20.36 -17 19 C-17.66 19 -18.32 19 -19 19 C-17.50848578 8.91452292 -10.35956178 -0.37560984 0 0 Z " fill="#F4E5E5" transform="translate(145,75)"/>
<path d="M0 0 C-1.59623144 4.39383706 -3.78024333 8.28995807 -6.125 12.3125 C-6.49753906 12.95767578 -6.87007812 13.60285156 -7.25390625 14.26757812 C-8.16632213 15.84675945 -9.08275509 17.42361864 -10 19 C-9.22269531 18.21238281 -8.44539063 17.42476562 -7.64453125 16.61328125 C-5.50930659 14.50328819 -3.44536039 12.72080917 -1 11 C-2.40987591 16.169545 -5.86322045 19.75341352 -10 23 C-12.2265625 23.703125 -12.2265625 23.703125 -14 24 C-14.33 23.01 -14.66 22.02 -15 21 C-15.99 20.67 -16.98 20.34 -18 20 C-18 12.52476568 -13.70972124 7.52521772 -9 2 C-5.5647952 -0.29013653 -4.014669 -0.17842973 0 0 Z " fill="#F4E4E5" transform="translate(74,63)"/>
<path d="M0 0 C0 0.66 0 1.32 0 2 C-1.2065625 2.4021875 -1.2065625 2.4021875 -2.4375 2.8125 C-3.283125 3.204375 -4.12875 3.59625 -5 4 C-5.33 4.99 -5.66 5.98 -6 7 C-6.66 7 -7.32 7 -8 7 C-9.66489182 10.92438786 -10.87204037 14.89100419 -12 19 C-8.18315774 17.44499019 -5.80804268 14.96404505 -3 12 C-4.19277253 16.9201867 -7.32496778 19.46641559 -10.9296875 22.7421875 C-13 24 -13 24 -15.1953125 23.7578125 C-17 23 -17 23 -18 22 C-19.03351709 15.06067095 -16.06597382 10.49145641 -12 5 C-7.91378796 1.19239333 -5.53950245 -0.14577638 0 0 Z " fill="#F4E6E7" transform="translate(38,63)"/>
<path d="M0 0 C1.99609375 1.38671875 1.99609375 1.38671875 3.99609375 4.38671875 C3.43019531 4.22558594 2.86429688 4.06445312 2.28125 3.8984375 C-0.06582848 3.3728524 -2.16406965 3.21954309 -4.56640625 3.19921875 C-5.33082031 3.18503906 -6.09523437 3.17085938 -6.8828125 3.15625 C-9.30544128 3.25438125 -9.30544128 3.25438125 -12.00390625 5.38671875 C-13.24140625 4.39671875 -13.24140625 4.39671875 -14.50390625 3.38671875 C-20.86289414 -0.78359424 -28.50819809 1.71797859 -35.46484375 3.14453125 C-36.30273438 3.22445312 -37.140625 3.304375 -38.00390625 3.38671875 C-38.66390625 2.72671875 -39.32390625 2.06671875 -40.00390625 1.38671875 C-11.43513768 -6.09264136 -11.43513768 -6.09264136 0 0 Z " fill="#F4E5E5" transform="translate(63.00390625,93.61328125)"/>
<path d="M0 0 C-0.33 1.98 -0.66 3.96 -1 6 C-1.969375 6.309375 -2.93875 6.61875 -3.9375 6.9375 C-6.84065792 7.69523342 -6.84065792 7.69523342 -8 9 C-6.35 9.33 -4.7 9.66 -3 10 C-5.21917174 13.98870738 -7.81228587 17.24577438 -10.875 20.625 C-11.71804687 21.56601563 -12.56109375 22.50703125 -13.4296875 23.4765625 C-15.83156937 25.83464106 -18.04480141 27.42177567 -21 29 C-21 19.83943458 -10.96011083 8.96573283 -4.75 2.5 C-2 0 -2 0 0 0 Z " fill="#EDAAAC" transform="translate(142,53)"/>
<path d="M0 0 C0 0.99 0 1.98 0 3 C-0.99 3 -1.98 3 -3 3 C-3.04125 3.99 -3.0825 4.98 -3.125 6 C-3.83783009 10.91953158 -6.42150703 14.62716755 -10 18 C-13.375 19 -13.375 19 -16 19 C-17.1984792 16.16723098 -17.02207748 15.05973906 -15.9375 12.125 C-13.65901172 8.4500189 -11.15523151 5.94488274 -8 3 C-8.33 2.34 -8.66 1.68 -9 1 C-5.8035914 -0.06546953 -3.34252724 -0.07427838 0 0 Z " fill="#EEB7B9" transform="translate(114,51)"/>
<path d="M0 0 C-0.66 1.98 -1.32 3.96 -2 6 C-2.66 6 -3.32 6 -4 6 C-4.433125 7.299375 -4.433125 7.299375 -4.875 8.625 C-5.91666667 11.75 -6.95833333 14.875 -8 18 C-7.21625 17.525625 -6.4325 17.05125 -5.625 16.5625 C-4.11051322 15.66101977 -2.5764103 14.78820515 -1 14 C-2.59720719 18.3124594 -5.31633819 20.42143673 -9 23 C-11.375 22.8125 -11.375 22.8125 -13 22 C-14.37343709 18.00454664 -13.81341465 15.08013616 -12.22265625 11.203125 C-9.61852953 6.51070498 -5.69616687 0 0 0 Z " fill="#F4E7E7" transform="translate(108,76)"/>
<path d="M0 0 C-1.13125641 2.67387879 -2.37092648 4.42105168 -4.3125 6.625 C-7.74882622 10.59313861 -9.8037126 15.27097265 -12 20 C-11.34 20 -10.68 20 -10 20 C-10.75 21.9375 -10.75 21.9375 -12 24 C-14.125 24.75 -14.125 24.75 -16 25 C-17.66353749 21.47721472 -18.26407613 19.68917871 -17 16 C-13.70152318 9.8253427 -7.68896716 0 0 0 Z " fill="#F5E9EA" transform="translate(138,74)"/>
<path d="M0 0 C0.12375 0.639375 0.2475 1.27875 0.375 1.9375 C0.58125 2.618125 0.7875 3.29875 1 4 C1.66 4.33 2.32 4.66 3 5 C1.75314243 6.58580914 0.50236974 8.1685404 -0.75 9.75 C-1.44609375 10.63171875 -2.1421875 11.5134375 -2.859375 12.421875 C-6.7407878 17.09656925 -6.7407878 17.09656925 -9 19 C-10.32 19 -11.64 19 -13 19 C-13.86000123 13.40999197 -11.67788096 10.44319278 -8.60546875 6.05078125 C-7.14795126 4.18898884 -5.82246958 2.50676619 -4 1 C-3.01 1 -2.02 1 -1 1 C-1 1.66 -1 2.32 -1 3 C-1.99 3 -2.98 3 -4 3 C-4 4.32 -4 5.64 -4 7 C-0.77595022 5.33045181 -0.77595022 5.33045181 -0.3125 2.375 C-0.209375 1.59125 -0.10625 0.8075 0 0 Z " fill="#E02833" transform="translate(55,64)"/>
<path d="M0 0 C0.33 0 0.66 0 1 0 C1.12375 1.134375 1.2475 2.26875 1.375 3.4375 C1.58125 4.613125 1.7875 5.78875 2 7 C2.66 7.33 3.32 7.66 4 8 C3.34 8.66 2.68 9.32 2 10 C0.68 10 -0.64 10 -2 10 C-2 10.66 -2 11.32 -2 12 C-3.62339805 13.70884005 -5.29319053 15.37446717 -7 17 C-7.66 17.66 -8.32 18.32 -9 19 C-9.99 19 -10.98 19 -12 19 C-11.53680089 14.27536912 -10.90108294 10.82942948 -8 7 C-7.34 7 -6.68 7 -6 7 C-5.67 5.68 -5.34 4.36 -5 3 C-3.35 2.67 -1.7 2.34 0 2 C0 1.34 0 0.68 0 0 Z " fill="#F0C3C4" transform="translate(38,63)"/>
<path d="M0 0 C1.52723194 3.05446387 1.64234566 5.71022972 1 9 C-1.4621316 14.29318195 -4.09381994 18.71499248 -9 22 C-9.66 21.34 -10.32 20.68 -11 20 C-10.071875 19.278125 -9.14375 18.55625 -8.1875 17.8125 C-3.08550474 13.51671626 -1.65146181 9.64491046 -1 3 C-3.5734132 4.62982836 -4.8280617 5.52102902 -5.875 8.4375 C-7.42005168 11.95678437 -9.7512457 13.09312247 -13 15 C-12.74086272 8.65113652 -10.61254026 5.3311386 -6 1 C-4 0 -4 0 0 0 Z " fill="#F3DCDE" transform="translate(96,74)"/>
<path d="M0 0 C6.10642479 -0.78287497 10.00459579 1.89174849 15 5 C15 6.32 15 7.64 15 9 C14.01 9.33 13.02 9.66 12 10 C9.65717548 8.76585956 7.51707416 7.50753507 5.3125 6.0625 C4.70599609 5.67642578 4.09949219 5.29035156 3.47460938 4.89257812 C1.97719735 3.93753581 0.48780599 2.96993914 -1 2 C-0.67 1.34 -0.34 0.68 0 0 Z " fill="#F5ECEC" transform="translate(114,51)"/>
<path d="M0 0 C0.86625 0.185625 1.7325 0.37125 2.625 0.5625 C1.13228757 3.93264456 -0.81020826 6.43467838 -3.25 9.1875 C-3.92804688 9.96351562 -4.60609375 10.73953125 -5.3046875 11.5390625 C-7.26781924 13.45774597 -8.86192795 14.51444753 -11.375 15.5625 C-9.79120652 9.38570544 -6.81411204 1.13568534 0 0 Z " fill="#E1303B" transform="translate(133.375,63.4375)"/>
<path d="M0 0 C0.99 0 1.98 0 3 0 C1.57593543 3.88252431 -0.2384254 7.25039741 -2.4375 10.75 C-3.03433594 11.71421875 -3.63117187 12.6784375 -4.24609375 13.671875 C-6 16 -6 16 -9 17 C-8.51340975 12.03088142 -7.08178818 9.12153787 -4.125 5.125 C-3.07699219 3.67480469 -3.07699219 3.67480469 -2.0078125 2.1953125 C-1.34523438 1.47085938 -0.68265625 0.74640625 0 0 Z " fill="#E02833" transform="translate(65,65)"/>
<path d="M0 0 C-1.45190613 6.13027032 -4.97285953 11.23739067 -9 16 C-9.99 16.33 -10.98 16.66 -12 17 C-11.43818225 13.12208721 -10.34625496 10.59084674 -8.125 7.375 C-7.61195313 6.61960937 -7.09890625 5.86421875 -6.5703125 5.0859375 C-2.74157303 0 -2.74157303 0 0 0 Z " fill="#E02A34" transform="translate(138,77)"/>
<path d="M0 0 C-0.58225254 4.80358345 -2.27462821 8.06335186 -5 12 C-7.75 12.9375 -7.75 12.9375 -10 13 C-9.47470631 8.8911959 -8.33192009 6.74480159 -5.5625 3.6875 C-4.94503906 2.99011719 -4.32757813 2.29273438 -3.69140625 1.57421875 C-2 0 -2 0 0 0 Z " fill="#E0242F" transform="translate(109,55)"/>
<path d="M0 0 C1.32 0.66 2.64 1.32 4 2 C3.64598897 5.18609925 3.16972964 6.79066678 1.125 9.3125 C-1 11 -1 11 -4 11 C-3.48964169 6.6109185 -2.47785723 3.66291938 0 0 Z " fill="#E02833" transform="translate(104,83)"/>
<path d="M0 0 C1.32 0 2.64 0 4 0 C5.20272819 2.40545638 5.10071472 3.94996953 5.0625 6.625 C5.05347656 7.44226563 5.04445313 8.25953125 5.03515625 9.1015625 C5.02355469 9.72804688 5.01195313 10.35453125 5 11 C3.02 10.34 1.04 9.68 -1 9 C-1.09765625 2.84765625 -1.09765625 2.84765625 -1 1 C-0.67 0.67 -0.34 0.34 0 0 Z " fill="#F0BEC0" transform="translate(108,74)"/>
<path d="M0 0 C1.32 0.66 2.64 1.32 4 2 C3.42636089 5.87206399 1.65894107 8.18465063 -1 11 C-1.99 11 -2.98 11 -4 11 C-3.56179109 6.44262737 -3.14958831 3.42346555 0 0 Z " fill="#E02631" transform="translate(30,71)"/>
<path d="M0 0 C0.125 2.875 0.125 2.875 0 6 C-0.66 6.66 -1.32 7.32 -2 8 C-1.67 6.02 -1.34 4.04 -1 2 C-1.4846875 2.36351562 -1.969375 2.72703125 -2.46875 3.1015625 C-7.3125 6.734375 -12.15625 10.3671875 -17 14 C-15.62592928 9.53427015 -13.68609315 7.55743141 -10 4.75 C-9.113125 4.06421875 -8.22625 3.3784375 -7.3125 2.671875 C-4.46223712 0.61121197 -3.55836507 0 0 0 Z " fill="#F2D2D3" transform="translate(143,51)"/>
<path d="M0 0 C0.99 0.33 1.98 0.66 3 1 C1.92319498 2.13125022 0.83824365 3.25474919 -0.25 4.375 C-0.85328125 5.00148438 -1.4565625 5.62796875 -2.078125 6.2734375 C-3.98446657 7.98604517 -5.68625907 8.93795498 -8 10 C-9.35113205 10.97581759 -10.68946944 11.97029741 -12 13 C-10.32939586 6.6888288 -5.18555656 3.4570377 0 0 Z " fill="#E12F3A" transform="translate(104,53)"/>
<path d="M0 0 C0 0.99 0 1.98 0 3 C-0.99 3 -1.98 3 -3 3 C-3.33 4.65 -3.66 6.3 -4 8 C-4.33 6.68 -4.66 5.36 -5 4 C-7.64 6.31 -10.28 8.62 -13 11 C-13 8 -13 8 -10.5 5.3125 C-9.675 4.549375 -8.85 3.78625 -8 3 C-8.33 2.34 -8.66 1.68 -9 1 C-5.8035914 -0.06546953 -3.34252724 -0.07427838 0 0 Z " fill="#F2D3D4" transform="translate(114,51)"/>
<path d="M0 0 C0.33 0 0.66 0 1 0 C2.20616304 3.27387111 2.30370149 5.32218871 0.87109375 8.51953125 C-1.65198165 12.83847988 -3.79162624 16.18524892 -8 19 C-8.66 18.34 -9.32 17.68 -10 17 C-9.071875 16.278125 -8.14375 15.55625 -7.1875 14.8125 C-2.08550474 10.51671626 -0.65146181 6.64491046 0 0 Z " fill="#EEB7B9" transform="translate(95,77)"/>
<path d="M0 0 C0.33 0.99 0.66 1.98 1 3 C1.66 3 2.32 3 3 3 C2.731875 3.66 2.46375 4.32 2.1875 5 C0.74294953 8.64939067 -0.62871178 12.32245433 -2 16 C-2.33 15.34 -2.66 14.68 -3 14 C-3.66 13.67 -4.32 13.34 -5 13 C-4.360625 11.96875 -3.72125 10.9375 -3.0625 9.875 C-1.18288629 6.61390342 -0.36873469 3.77953056 0 0 Z " fill="#E12D37" transform="translate(97,77)"/>
<path d="M0 0 C1.98 0 3.96 0 6 0 C5.375 1.875 5.375 1.875 4 4 C0.875 5.25 0.875 5.25 -2 6 C-1.49396008 3.83125748 -1.00016187 2.00032373 0 0 Z " fill="#E0222D" transform="translate(130,64)"/>
<path d="M0 0 C0 0.33 0 0.66 0 1 C-1.95565258 1.38873828 -3.91466504 1.76060833 -5.875 2.125 C-6.96554688 2.33382812 -8.05609375 2.54265625 -9.1796875 2.7578125 C-10.57574219 2.87769531 -10.57574219 2.87769531 -12 3 C-12.66 2.34 -13.32 1.68 -14 1 C-8.83955235 -0.512545 -5.34001821 -1.33500455 0 0 Z " fill="#EFB8BA" transform="translate(37,94)"/>
<path d="M0 0 C0.99 0 1.98 0 3 0 C3 1.98 3 3.96 3 6 C1.68 6 0.36 6 -1 6 C-1.042721 4.33388095 -1.04063832 2.66617115 -1 1 C-0.67 0.67 -0.34 0.34 0 0 Z " fill="#E02831" transform="translate(108,77)"/>
<path d="M0 0 C0 3 0 3 -1.2421875 4.60546875 C-1.78101563 5.12753906 -2.31984375 5.64960937 -2.875 6.1875 C-3.40867188 6.71730469 -3.94234375 7.24710938 -4.4921875 7.79296875 C-6 9 -6 9 -8 9 C-8.33 8.01 -8.66 7.02 -9 6 C-8.43410156 5.65066406 -7.86820313 5.30132812 -7.28515625 4.94140625 C-6.55167969 4.48636719 -5.81820312 4.03132813 -5.0625 3.5625 C-4.33160156 3.11003906 -3.60070312 2.65757813 -2.84765625 2.19140625 C-1.06100191 1.13135967 -1.06100191 1.13135967 0 0 Z " fill="#F0BDBF" transform="translate(153,51)"/>
<path d="M0 0 C0.66 0 1.32 0 2 0 C1.67 1.98 1.34 3.96 1 6 C-0.98 6 -2.96 6 -5 6 C-3.38405168 3.95880212 -1.7143618 1.95927063 0 0 Z " fill="#E13036" transform="translate(140,53)"/>
<path d="M0 0 C0.66 0.99 1.32 1.98 2 3 C0.60667426 6.36720387 -0.9789286 7.9859524 -4 10 C-3.29445932 6.33118845 -1.72264494 3.29549466 0 0 Z " fill="#E12E39" transform="translate(139,84)"/>
<path d="M0 0 C0.99 0 1.98 0 3 0 C1.92598892 2.91517292 1.22189824 4.77810176 -1 7 C-1.99 6.34 -2.98 5.68 -4 5 C-2.1875 2.5 -2.1875 2.5 0 0 Z " fill="#E23D46" transform="translate(65,65)"/>
<path d="M0 0 C0.99 0 1.98 0 3 0 C3.33 1.65 3.66 3.3 4 5 C2.68 5 1.36 5 0 5 C-0.5625 3.0625 -0.5625 3.0625 -1 1 C-0.67 0.67 -0.34 0.34 0 0 Z " fill="#EA9196" transform="translate(139,95)"/>
<path d="M0 0 C0.99 0 1.98 0 3 0 C2.75 2.375 2.75 2.375 2 5 C-0.0625 6.3125 -0.0625 6.3125 -2 7 C-1.125 2.25 -1.125 2.25 0 0 Z " fill="#E2363E" transform="translate(128,87)"/>
<path d="M0 0 C0.99 0 1.98 0 3 0 C3 1.65 3 3.3 3 5 C1.68 5.33 0.36 5.66 -1 6 C-1.042721 4.33388095 -1.04063832 2.66617115 -1 1 C-0.67 0.67 -0.34 0.34 0 0 Z " fill="#DF1E28" transform="translate(34,65)"/>
<path d="M0 0 C0.66 0.33 1.32 0.66 2 1 C0.7508258 4.45925163 -0.67527795 7.14693203 -3 10 C-3.66 9.67 -4.32 9.34 -5 9 C-3.99088542 7.2421875 -2.98177083 5.484375 -1.97265625 3.7265625 C-1.28280949 2.50201525 -0.62855462 1.25710923 0 0 Z " fill="#F0BFC1" transform="translate(108,58)"/>
<path d="M0 0 C1.65 0 3.3 0 5 0 C4.34 1.32 3.68 2.64 3 4 C1.68 4 0.36 4 -1 4 C-0.67 2.68 -0.34 1.36 0 0 Z " fill="#F4E5E5" transform="translate(77,63)"/>
<path d="M0 0 C0.66 0.33 1.32 0.66 2 1 C-0.475 4.465 -0.475 4.465 -3 8 C-3.66 7.34 -4.32 6.68 -5 6 C-3.35 4.02 -1.7 2.04 0 0 Z " fill="#EFBBBD" transform="translate(142,86)"/>
</svg>
