<?xml version="1.0" encoding="UTF-8"?>
<svg version="1.1" xmlns="http://www.w3.org/2000/svg" width="157" height="147">
<path d="M0 0 C51.81 0 103.62 0 157 0 C157 48.51 157 97.02 157 147 C105.19 147 53.38 147 0 147 C0 98.49 0 49.98 0 0 Z " fill="#020202" transform="translate(0,0)"/>
<path d="M0 0 C19.14 0 38.28 0 58 0 C54.76600114 2.42549915 51.77217842 4.26672653 48.25 6.1875 C35.76746286 13.44620164 28.33817813 24.3180536 24 38 C19.45209566 55.7781715 22.75401201 72.56495758 31.88427734 88.27636719 C34.35283805 92.08994237 37.48436813 95.15757423 41 98 C38.46858579 99.2657071 37.37529913 98.81047775 34.625 98.3125 C31.01009737 97.8450073 31.01009737 97.8450073 27.75 99.3125 C22.45362581 107.36727789 22.45362581 107.36727789 20.94042969 116.68286133 C20.94903015 117.49177322 20.95763062 118.30068512 20.9664917 119.1341095 C20.97754944 119.74985336 20.98860718 120.36559723 21 121 C26.76137549 123.47272464 32.52310828 125.94461429 38.28515625 128.41577148 C40.24032989 129.25441604 42.19541015 130.09327831 44.15039062 130.93237305 C45.09591797 131.33818604 46.04144531 131.74399902 47.015625 132.16210938 C47.9499939 132.56317902 48.88436279 132.96424866 49.8470459 133.37747192 C52.5974653 134.55572948 55.35040257 135.72795556 58.10351562 136.89990234 C61.00233229 138.13581207 63.88796486 139.39177747 66.75585938 140.69775391 C67.78001953 141.15456543 68.80417969 141.61137695 69.859375 142.08203125 C70.68405273 142.46206299 71.50873047 142.84209473 72.35839844 143.23364258 C79.81833757 145.39785228 85.30463957 143.50173755 92.109375 140.45703125 C92.95743713 140.09155685 93.80549927 139.72608246 94.67926025 139.34953308 C97.37561096 138.18402284 100.06276505 136.9988548 102.75 135.8125 C104.53847604 135.03445782 106.32753447 134.25775292 108.1171875 133.48242188 C111.54580217 131.99534483 114.97216036 130.50327728 118.39648438 129.00634766 C122.3031882 127.30110578 126.21492442 125.61031743 130.140625 123.94921875 C131.04844727 123.56467529 131.95626953 123.18013184 132.89160156 122.78393555 C135 122 135 122 137 122 C138.5713638 115.66466025 137.25168417 112.25563284 134.1875 106.625 C133.81818359 105.90183594 133.44886719 105.17867188 133.06835938 104.43359375 C131.24102507 100.56202819 131.24102507 100.56202819 128 98 C126.12137125 98.08744368 124.24544819 98.24175542 122.375 98.4375 C121.37210937 98.53933594 120.36921875 98.64117187 119.3359375 98.74609375 C118.56507812 98.82988281 117.79421875 98.91367188 117 99 C117.86625 98.030625 118.7325 97.06125 119.625 96.0625 C131.80799173 81.75823441 137.10397814 66.79111724 136 48 C134.74490329 36.12077482 129.55551747 22.75606412 120.4375 14.75 C119.633125 14.1725 118.82875 13.595 118 13 C117.26523438 12.21753906 116.53046875 11.43507813 115.7734375 10.62890625 C112.76424221 7.77652818 109.86515553 6.08204982 106.1875 4.1875 C105.02605469 3.58292969 103.86460938 2.97835938 102.66796875 2.35546875 C101.34732422 1.68451172 101.34732422 1.68451172 100 1 C100 0.67 100 0.34 100 0 C118.81 0 137.62 0 157 0 C157 48.51 157 97.02 157 147 C105.19 147 53.38 147 0 147 C0 98.49 0 49.98 0 0 Z " fill="#F6F6F6" transform="translate(0,0)"/>
<path d="M0 0 C1.3280088 -0.0199704 1.3280088 -0.0199704 2.68284607 -0.04034424 C4.54930388 -0.06049255 6.41590425 -0.06998153 8.2824707 -0.06933594 C11.09122302 -0.07803251 13.89354057 -0.15059391 16.70117188 -0.2265625 C29.51300585 -0.38553743 40.04390042 1.63883765 49.69165039 10.66821289 C51.10601897 12.27144169 52.32059878 13.93175619 53.55859375 15.671875 C54.38359375 16.435 55.20859375 17.198125 56.05859375 17.984375 C66.40053838 29.10196548 69.96496495 43.3323086 69.76171875 58.15234375 C68.89289707 73.20635011 63.30748272 87.23201596 52.02734375 97.44921875 C51.54265625 97.85269531 51.05796875 98.25617188 50.55859375 98.671875 C51.22246094 98.54167969 51.88632813 98.41148438 52.5703125 98.27734375 C53.45332031 98.13941406 54.33632812 98.00148438 55.24609375 97.859375 C56.11621094 97.70855469 56.98632812 97.55773437 57.8828125 97.40234375 C61.85557977 97.80252031 63.07442839 99.63793534 65.55859375 102.671875 C67.4296875 105.7578125 67.4296875 105.7578125 68.99609375 109.046875 C69.53105469 110.12710938 70.06601563 111.20734375 70.6171875 112.3203125 C71.84668347 116.69752223 71.43724717 118.53096135 69.55859375 122.671875 C66.80157072 124.70648774 63.77375825 125.87001433 60.59765625 127.1171875 C59.24624039 127.68383621 59.24624039 127.68383621 57.86752319 128.26193237 C54.98242273 129.46502515 52.08399479 130.63122122 49.18359375 131.796875 C47.26984024 132.58744401 45.3570666 133.38038946 43.4453125 134.17578125 C39.77859386 135.69775098 36.10463423 137.19943548 32.42285156 138.68457031 C29.52873358 139.85555805 26.65709089 141.05445206 23.81152344 142.33886719 C22.78704102 142.79680664 21.76255859 143.25474609 20.70703125 143.7265625 C19.88122559 144.11054199 19.05541992 144.49452148 18.20458984 144.89013672 C10.7857845 147.08196314 5.29226642 145.19162255 -1.48046875 142.1640625 C-2.32378754 141.80095978 -3.16710632 141.43785706 -4.03598022 141.06375122 C-6.71888233 139.90494588 -9.39257422 138.72643568 -12.06640625 137.546875 C-13.83796194 136.77730991 -15.6100935 136.00906907 -17.3828125 135.2421875 C-20.8151558 133.75523479 -24.24361117 132.2598611 -27.66894531 130.75683594 C-30.70580139 129.42595195 -33.74790525 128.10949346 -36.79980469 126.81347656 C-37.78465347 126.39523117 -37.78465347 126.39523117 -38.78939819 125.96853638 C-40.52463461 125.23376488 -42.26105071 124.50178106 -43.99755859 123.77001953 C-46.44140625 122.671875 -46.44140625 122.671875 -47.44140625 121.671875 C-48.59900848 112.9898583 -45.23159969 106.82126435 -40.44140625 99.671875 C-36.98925772 97.37044264 -36.20661301 97.53353646 -32.25390625 98.046875 C-31.35285156 98.15773438 -30.45179687 98.26859375 -29.5234375 98.3828125 C-28.83636719 98.47820312 -28.14929688 98.57359375 -27.44140625 98.671875 C-27.92609375 98.28 -28.41078125 97.888125 -28.91015625 97.484375 C-40.23233102 87.38151136 -45.28316803 72.6348212 -46.71484375 57.84765625 C-47.29221375 42.63617743 -41.99466513 27.77643982 -32.12890625 16.234375 C-27.71510144 11.6629343 -22.90687985 7.90769295 -17.44140625 4.671875 C-16.61124496 4.17453354 -16.61124496 4.17453354 -15.76431274 3.66714478 C-10.43987022 0.71851638 -6.03379099 0.03234551 0 0 Z M-28.44140625 20.671875 C-33.62255135 27.42275317 -36.99224143 34.54749493 -39.44140625 42.671875 C-39.63476562 43.28160156 -39.828125 43.89132813 -40.02734375 44.51953125 C-42.79400368 58.90094276 -39.46053411 73.58875475 -31.44140625 85.671875 C-23.37609281 96.45965711 -11.78464586 104.24271012 1.55859375 106.671875 C13.68207363 107.87597405 24.66296526 107.43295767 35.55859375 101.671875 C36.89083984 101.02025391 36.89083984 101.02025391 38.25 100.35546875 C50.76835365 93.64716015 57.59281743 82.24137706 62.43359375 69.33984375 C66.22005379 55.58763126 63.68197419 40.5761939 56.74609375 28.359375 C48.66219854 15.9318943 37.79915306 7.9101182 23.34375 4.0859375 C3.74103028 1.17164817 -14.72818832 5.68843461 -28.44140625 20.671875 Z " fill="#ECECEC" transform="translate(67.44140625,-0.671875)"/>
<path d="M0 0 C9.1750433 5.26715449 15.70559872 12.72743071 18.94921875 22.85546875 C20.93334334 33.14015128 19.7768365 43.0510251 14.375 52.0625 C7.80452366 61.2973821 -0.44803515 66.86702476 -11.625 69.0625 C-22.70176517 70.11563896 -32.03182602 67.08745973 -40.625 60.0625 C-47.70304777 53.69652947 -51.94508046 45.79410245 -53.0703125 36.30859375 C-53.42091777 24.72693299 -50.59196753 15.57708614 -42.625 7.0625 C-30.70543455 -3.95038237 -14.93987211 -6.93866905 0 0 Z " fill="#F4F4F4" transform="translate(95.625,21.9375)"/>
<path d="M0 0 C2.81514661 1.09774991 5.62735952 2.202037 8.4375 3.3125 C9.31680176 3.65917725 10.19610352 4.00585449 11.10205078 4.36303711 C16.35504697 6.4606733 21.53679868 8.6686686 26.68359375 11.015625 C27.79613525 11.52053467 28.90867676 12.02544434 30.05493164 12.5456543 C32.24112642 13.5444651 34.42153466 14.55605561 36.59545898 15.58129883 C37.60294189 16.04044678 38.6104248 16.49959473 39.6484375 16.97265625 C40.53708496 17.38781494 41.42573242 17.80297363 42.34130859 18.23071289 C48.83959089 20.11097804 54.89725784 16.5368931 60.7734375 13.96484375 C61.6971817 13.56672989 62.6209259 13.16861603 63.57266235 12.75843811 C66.50951492 11.49102224 69.44226498 10.21441061 72.375 8.9375 C74.37082973 8.07425913 76.36692075 7.21162206 78.36328125 6.34960938 C83.24523601 4.24005853 88.12385927 2.12295247 93 0 C95.39302386 2.95177163 97.58889726 5.73103322 99.3125 9.125 C99.65925781 9.78757812 100.00601563 10.45015625 100.36328125 11.1328125 C101 13 101 13 100 16 C97.37032463 17.33373913 94.80859475 18.4815581 92.08203125 19.58203125 C91.27319992 19.91869308 90.46436859 20.25535492 89.63102722 20.60221863 C87.02899381 21.6826588 84.42103155 22.74785711 81.8125 23.8125 C79.26000019 24.86654622 76.70877772 25.92362523 74.15792847 26.98165894 C72.48474123 27.67257826 70.80937678 28.35824884 69.13186646 29.03860474 C65.34937109 30.57730803 61.61896204 32.15056135 57.95458984 33.95458984 C57.33565353 34.25040451 56.71671722 34.54621918 56.07902527 34.85099792 C54.45696421 35.63505358 52.85010762 36.45035743 51.24487305 37.26831055 C46.50458284 38.33720301 43.38951835 36.82747417 39 35 C38.16848923 34.6719487 37.33697845 34.3438974 36.48027039 34.00590515 C33.74591949 32.91611549 31.02830941 31.7914265 28.3125 30.65625 C26.83692627 30.04070251 26.83692627 30.04070251 25.33154297 29.41271973 C23.27019661 28.55065596 21.2096594 27.68665504 19.14990234 26.82080078 C15.98562016 25.49397032 12.81521351 24.18254315 9.64453125 22.87109375 C7.63762524 22.02958867 5.63110061 21.18717331 3.625 20.34375 C2.67407471 19.95304321 1.72314941 19.56233643 0.7434082 19.15979004 C-0.12840088 18.78930542 -1.00020996 18.4188208 -1.8984375 18.03710938 C-2.66849121 17.71528687 -3.43854492 17.39346436 -4.23193359 17.06188965 C-6 16 -6 16 -7 13 C-5.93430618 10.6682503 -4.83522353 8.52478591 -3.5625 6.3125 C-3.22412109 5.70599609 -2.88574219 5.09949219 -2.53710938 4.47460938 C-1.70042085 2.9779975 -0.85137169 1.48830811 0 0 Z " fill="#020202" transform="translate(32,102)"/>
<path d="M0 0 C0.68707031 0.0721875 1.37414062 0.144375 2.08203125 0.21875 C2.98308594 0.3115625 3.88414063 0.404375 4.8125 0.5 C5.70582031 0.5928125 6.59914063 0.685625 7.51953125 0.78125 C10.08305099 1.04392401 10.08305099 1.04392401 13 1 C13 1.66 13 2.32 13 3 C13.99 3.33 14.98 3.66 16 4 C12.06322574 5.31225809 10.2205738 4.3393954 6.3125 3.0625 C5.13300781 2.68222656 3.95351563 2.30195312 2.73828125 1.91015625 C1.83464844 1.60980469 0.93101563 1.30945313 0 1 C0 0.67 0 0.34 0 0 Z " fill="#DADADA" transform="translate(30,97)"/>
<path d="M0 0 C0.66 0.66 1.32 1.32 2 2 C1.071875 1.938125 0.14375 1.87625 -0.8125 1.8125 C-6.08376961 1.7799613 -10.99975875 3.48093937 -16 5 C-11.28420504 -0.05986584 -6.81228103 -0.46447371 0 0 Z " fill="#DADADA" transform="translate(128,97)"/>
</svg>
